<svg xmlns="http://www.w3.org/2000/svg" viewBox="0 0 225.12 76.92" class="" style=""><defs><style>.cls-1,.cls-2,.cls-3,.cls-4,.cls-6{fill:none;stroke:#76777a;}.cls-1,.cls-3{stroke-linejoin:round;}.cls-2,.cls-4,.cls-6{stroke-miterlimit:10;}.cls-3{stroke-linecap:round;}.cls-3,.cls-4{stroke-width:0.6px;}.cls-5{fill:#76777a;}.cls-6{stroke-width:0.78px;}</style></defs><title>Ativo 2</title><g id="Camada_2" data-name="Camada 2"><g id="Camada_1-2" data-name="Camada 1"><path class="cls-1 DToizyOn_0" d="M224.62,35.74l-6.11-6.11-.21-.09H168.11l-5.21-5.21-.21-.09H116.91V12.65h1.25l.3-.3V9.12L118.34,9l0-.09L110,.5h-.43L102,8.82h-.18l-.3.3v3.23l.3.3H103V24.24H89.34V21.31l-.12-.12,0-.09-9-9-.21-.09H9.75l-.21.09-9,9,0,.09-.12.12v3.23l.3.3h3V73.67l.3.3H59.56V76.1l.3.3H80.07l.3-.3V73.31H93.11v2.81l.3.3H114.8l.3-.3V73.31h11.52V76.1l.3.3h39.52l.3-.3V71h54.69l.3-.3V39.47H224l.3-.3V36.24h.12Z"></path><path class="cls-2 DToizyOn_1" d="M89.26,21.11L0.61,21.11"></path><path class="cls-2 DToizyOn_2" d="M89.26,24.25L0.61,24.25"></path><path class="cls-2 DToizyOn_3" d="M116.75,24.25L103.16,24.25"></path><path class="cls-3 DToizyOn_4" d="M64.79,24.25L55.72,33.33L171.56,33.33L167.06,28.79"></path><path class="cls-2 DToizyOn_5" d="M116.75,12.65L103.16,12.65"></path><path class="cls-4 DToizyOn_6" d="M118.75,9.15L101.66,9.15"></path><path class="cls-4 DToizyOn_7" width="4.09" height="5.29" d="M107.93 15.73 L112.02000000000001 15.73 L112.02000000000001 21.02 L107.93 21.02 Z"></path><path class="cls-5 DToizyOn_8" width="2.34" height="3.54" d="M108.8 16.6 L111.14 16.6 L111.14 20.14 L108.8 20.14 Z"></path><path class="cls-3 DToizyOn_9" d="M171.57,33.33L171.57,36.8L55.72,36.8L55.72,33.33"></path><path class="cls-3 DToizyOn_10" d="M171.56,35.95L224,35.95"></path><path class="cls-3 DToizyOn_11" d="M166.71,39.3L222,39.3"></path><path class="cls-3 DToizyOn_12" d="M166.51,36.8L166.51,71"></path><path class="cls-3 DToizyOn_13" d="M146.29,36.8L146.29,76.45"></path><path class="cls-3 DToizyOn_14" d="M126.8,36.8L126.8,76.45"></path><path class="cls-3 DToizyOn_15" d="M80,36.8L80,76.45"></path><path class="cls-3 DToizyOn_16" d="M59.84,36.8L59.84,76.45"></path><path class="cls-3 DToizyOn_17" d="M116.75,73.14L91.66,73.14"></path><path class="cls-3 DToizyOn_18" d="M113.01,73.14L113.01,69.92L95.16,69.92L95.16,73.14"></path><path class="cls-3 DToizyOn_19" d="M110.12,69.99L110.12,66.77L98.06,66.77L98.06,69.99"></path><path class="cls-3 DToizyOn_20" d="M126.77,66.77L80.07,66.77"></path><path class="cls-4 DToizyOn_21" d="M80,59.48L94.43,59.48L94.43,66.77"></path><path class="cls-4 DToizyOn_22" width="8.29" height="15.42" d="M83.87 51.35 L92.16 51.35 L92.16 66.77 L83.87 66.77 Z"></path><path class="cls-4 DToizyOn_23" d="M93.33,59.48L93.33,66.77"></path><path class="cls-4 DToizyOn_24" d="M90.78,59.48L90.78,66.77"></path><path class="cls-4 DToizyOn_25" d="M89.38,59.48L89.38,66.77"></path><path class="cls-4 DToizyOn_26" d="M87.98,59.48L87.98,66.77"></path><path class="cls-4 DToizyOn_27" d="M86.58,59.48L86.58,66.77"></path><path class="cls-4 DToizyOn_28" d="M85.18,59.48L85.18,66.77"></path><path class="cls-4 DToizyOn_29" d="M82.53,59.48L82.53,66.77"></path><path class="cls-4 DToizyOn_30" d="M126.71,59.48L112.28,59.48L112.28,66.77"></path><path class="cls-4 DToizyOn_31" width="8.29" height="15.42" d="M114.56 51.35 L122.85 51.35 L122.85 66.77 L114.56 66.77 Z"></path><path class="cls-4 DToizyOn_32" d="M113.38,59.48L113.38,66.77"></path><path class="cls-4 DToizyOn_33" d="M115.93,59.48L115.93,66.77"></path><path class="cls-4 DToizyOn_34" d="M117.33,59.48L117.33,66.77"></path><path class="cls-4 DToizyOn_35" d="M118.73,59.48L118.73,66.77"></path><path class="cls-4 DToizyOn_36" d="M120.13,59.48L120.13,66.77"></path><path class="cls-4 DToizyOn_37" d="M121.53,59.48L121.53,66.77"></path><path class="cls-4 DToizyOn_38" d="M124.18,59.48L124.18,66.77"></path><path class="cls-4 DToizyOn_39" d="M125.48,59.48L125.48,66.77"></path><path class="cls-4 DToizyOn_40" d="M81.33,59.48L81.33,66.77"></path><path class="cls-5 DToizyOn_41" width="6.52" height="7.33" d="M84.73 52.15 L91.25 52.15 L91.25 59.48 L84.73 59.48 Z"></path><path class="cls-5 DToizyOn_42" width="6.52" height="7.33" d="M115.42 52.15 L121.94 52.15 L121.94 59.48 L115.42 59.48 Z"></path><path class="cls-4 DToizyOn_43" width="4.09" height="3.09" d="M116.89 38.67 L120.98 38.67 L120.98 41.760000000000005 L116.89 41.760000000000005 Z"></path><path class="cls-5 DToizyOn_44" width="2.34" height="1.34" d="M117.77 39.54 L120.11 39.54 L120.11 40.88 L117.77 40.88 Z"></path><path class="cls-4 DToizyOn_45" width="4.09" height="3.09" d="M136.92 38.67 L141.01 38.67 L141.01 41.760000000000005 L136.92 41.760000000000005 Z"></path><path class="cls-5 DToizyOn_46" width="2.34" height="1.34" d="M137.8 39.54 L140.14000000000001 39.54 L140.14000000000001 40.88 L137.8 40.88 Z"></path><path class="cls-4 DToizyOn_47" width="4.09" height="7.64" d="M136.92 49.87 L141.01 49.87 L141.01 57.51 L136.92 57.51 Z"></path><path class="cls-5 DToizyOn_48" width="2.34" height="5.89" d="M137.8 50.75 L140.14000000000001 50.75 L140.14000000000001 56.64 L137.8 56.64 Z"></path><path class="cls-4 DToizyOn_49" width="5.79" height="8.89" d="M153.61 53.99 L159.4 53.99 L159.4 62.88 L153.61 62.88 Z"></path><path class="cls-5 DToizyOn_50" width="4.04" height="7.14" d="M154.48 54.86 L158.51999999999998 54.86 L158.51999999999998 62 L154.48 62 Z"></path><path class="cls-4 DToizyOn_51" width="5.79" height="8.89" d="M172.45 41.39 L178.23999999999998 41.39 L178.23999999999998 50.28 L172.45 50.28 Z"></path><path class="cls-5 DToizyOn_52" width="4.04" height="7.14" d="M173.33 42.26 L177.37 42.26 L177.37 49.4 L173.33 49.4 Z"></path><path class="cls-4 DToizyOn_53" width="5.79" height="8.89" d="M209.71 41.38 L215.5 41.38 L215.5 50.27 L209.71 50.27 Z"></path><path class="cls-5 DToizyOn_54" width="4.04" height="7.14" d="M210.59 42.26 L214.63 42.26 L214.63 49.4 L210.59 49.4 Z"></path><path class="cls-4 DToizyOn_55" width="5.79" height="5.14" d="M192.35 41.39 L198.14 41.39 L198.14 46.53 L192.35 46.53 Z"></path><path class="cls-5 DToizyOn_56" width="4.04" height="3.39" d="M193.23 42.26 L197.26999999999998 42.26 L197.26999999999998 45.65 L193.23 45.65 Z"></path><path class="cls-4 DToizyOn_57" width="5.79" height="6.14" d="M184.36 55.96 L190.15 55.96 L190.15 62.1 L184.36 62.1 Z"></path><path class="cls-5 DToizyOn_58" width="4.04" height="4.39" d="M185.23 56.84 L189.26999999999998 56.84 L189.26999999999998 61.230000000000004 L185.23 61.230000000000004 Z"></path><path class="cls-4 DToizyOn_59" width="5.79" height="12.34" d="M172.35 56.33 L178.14 56.33 L178.14 68.67 L172.35 68.67 Z"></path><path class="cls-5 DToizyOn_60" width="4.04" height="10.59" d="M173.23 57.21 L177.26999999999998 57.21 L177.26999999999998 67.8 L173.23 67.8 Z"></path><path class="cls-4 DToizyOn_61" width="4.09" height="3.09" d="M67.44 38.67 L71.53 38.67 L71.53 41.760000000000005 L67.44 41.760000000000005 Z"></path><path class="cls-5 DToizyOn_62" width="2.34" height="1.34" d="M68.32 39.54 L70.66 39.54 L70.66 40.88 L68.32 40.88 Z"></path><path class="cls-4 DToizyOn_63" width="4.09" height="7.64" d="M67.44 49.87 L71.53 49.87 L71.53 57.51 L67.44 57.51 Z"></path><path class="cls-5 DToizyOn_64" width="2.34" height="5.89" d="M68.32 50.75 L70.66 50.75 L70.66 56.64 L68.32 56.64 Z"></path><path class="cls-4 DToizyOn_65" width="6.09" height="6.99" d="M12.29 50.37 L18.38 50.37 L18.38 57.36 L12.29 57.36 Z"></path><path class="cls-5 DToizyOn_66" width="4.34" height="5.24" d="M13.16 51.24 L17.5 51.24 L17.5 56.480000000000004 L13.16 56.480000000000004 Z"></path><path class="cls-4 DToizyOn_67" width="8.89" height="7.64" d="M44.03 50.37 L52.92 50.37 L52.92 58.01 L44.03 58.01 Z"></path><path class="cls-5 DToizyOn_68" width="7.14" height="5.89" d="M44.91 51.25 L52.05 51.25 L52.05 57.14 L44.91 57.14 Z"></path><path class="cls-4 DToizyOn_69" width="8.89" height="6.79" d="M44.03 31.95 L52.92 31.95 L52.92 38.74 L44.03 38.74 Z"></path><path class="cls-5 DToizyOn_70" width="7.14" height="5.04" d="M44.91 32.82 L52.05 32.82 L52.05 37.86 L44.91 37.86 Z"></path><path class="cls-4 DToizyOn_71" width="6.14" height="6.79" d="M28.93 31.95 L35.07 31.95 L35.07 38.74 L28.93 38.74 Z"></path><path class="cls-5 DToizyOn_72" width="4.39" height="5.04" d="M29.81 32.83 L34.199999999999996 32.83 L34.199999999999996 37.87 L29.81 37.87 Z"></path><path class="cls-4 DToizyOn_73" width="6.14" height="9.79" d="M28.94 50.29 L35.08 50.29 L35.08 60.08 L28.94 60.08 Z"></path><path class="cls-5 DToizyOn_74" width="4.39" height="8.04" d="M29.81 51.17 L34.199999999999996 51.17 L34.199999999999996 59.21 L29.81 59.21 Z"></path><path class="cls-4 DToizyOn_75" width="6.14" height="10.19" d="M12.26 31.95 L18.4 31.95 L18.4 42.14 L12.26 42.14 Z"></path><path class="cls-5 DToizyOn_76" width="4.39" height="8.44" d="M13.14 32.83 L17.53 32.83 L17.53 41.269999999999996 L13.14 41.269999999999996 Z"></path><path class="cls-4 DToizyOn_77" width="4.09" height="3.09" d="M85.97 38.67 L90.06 38.67 L90.06 41.760000000000005 L85.97 41.760000000000005 Z"></path><path class="cls-5 DToizyOn_78" width="2.34" height="1.34" d="M86.85 39.54 L89.19 39.54 L89.19 40.88 L86.85 40.88 Z"></path><path class="cls-4 DToizyOn_79" width="14.24" height="7.44" d="M96.51 51.6 L110.75 51.6 L110.75 59.04 L96.51 59.04 Z"></path><path class="cls-5 DToizyOn_80" width="12.49" height="5.69" d="M97.39 52.47 L109.88 52.47 L109.88 58.16 L97.39 58.16 Z"></path><path class="cls-6 DToizyOn_81" d="M180.18,71.04L180.18,68.67L170.21,68.67L170.21,71.04"></path><path class="cls-4 DToizyOn_82" width="5.79" height="12.34" d="M209.75 56.33 L215.54 56.33 L215.54 68.67 L209.75 68.67 Z"></path><path class="cls-5 DToizyOn_83" width="4.04" height="10.59" d="M210.63 57.21 L214.67 57.21 L214.67 67.8 L210.63 67.8 Z"></path><path class="cls-6 DToizyOn_84" d="M217.59,71.04L217.59,68.67L207.61,68.67L207.61,71.04"></path></g></g><style data-made-with="vivus-instant">.DToizyOn_0{stroke-dasharray:614 616;stroke-dashoffset:615;}.start .DToizyOn_0{animation:DToizyOn_draw 2800ms ease-out 0ms forwards;}.DToizyOn_1{stroke-dasharray:89 91;stroke-dashoffset:90;}.start .DToizyOn_1{animation:DToizyOn_draw 2800ms ease-out 2ms forwards;}.DToizyOn_2{stroke-dasharray:89 91;stroke-dashoffset:90;}.start .DToizyOn_2{animation:DToizyOn_draw 2800ms ease-out 4ms forwards;}.DToizyOn_3{stroke-dasharray:14 16;stroke-dashoffset:15;}.start .DToizyOn_3{animation:DToizyOn_draw 2800ms ease-out 7ms forwards;}.DToizyOn_4{stroke-dasharray:136 138;stroke-dashoffset:137;}.start .DToizyOn_4{animation:DToizyOn_draw 2800ms ease-out 9ms forwards;}.DToizyOn_5{stroke-dasharray:14 16;stroke-dashoffset:15;}.start .DToizyOn_5{animation:DToizyOn_draw 2800ms ease-out 11ms forwards;}.DToizyOn_6{stroke-dasharray:18 20;stroke-dashoffset:19;}.start .DToizyOn_6{animation:DToizyOn_draw 2800ms ease-out 14ms forwards;}.DToizyOn_7{stroke-dasharray:19 21;stroke-dashoffset:20;}.start .DToizyOn_7{animation:DToizyOn_draw 2800ms ease-out 16ms forwards;}.DToizyOn_8{stroke-dasharray:12 14;stroke-dashoffset:13;}.start .DToizyOn_8{animation:DToizyOn_draw 2800ms ease-out 19ms forwards;}.DToizyOn_9{stroke-dasharray:123 125;stroke-dashoffset:124;}.start .DToizyOn_9{animation:DToizyOn_draw 2800ms ease-out 21ms forwards;}.DToizyOn_10{stroke-dasharray:53 55;stroke-dashoffset:54;}.start .DToizyOn_10{animation:DToizyOn_draw 2800ms ease-out 23ms forwards;}.DToizyOn_11{stroke-dasharray:56 58;stroke-dashoffset:57;}.start .DToizyOn_11{animation:DToizyOn_draw 2800ms ease-out 26ms forwards;}.DToizyOn_12{stroke-dasharray:35 37;stroke-dashoffset:36;}.start .DToizyOn_12{animation:DToizyOn_draw 2800ms ease-out 28ms forwards;}.DToizyOn_13{stroke-dasharray:40 42;stroke-dashoffset:41;}.start .DToizyOn_13{animation:DToizyOn_draw 2800ms ease-out 30ms forwards;}.DToizyOn_14{stroke-dasharray:40 42;stroke-dashoffset:41;}.start .DToizyOn_14{animation:DToizyOn_draw 2800ms ease-out 33ms forwards;}.DToizyOn_15{stroke-dasharray:40 42;stroke-dashoffset:41;}.start .DToizyOn_15{animation:DToizyOn_draw 2800ms ease-out 35ms forwards;}.DToizyOn_16{stroke-dasharray:40 42;stroke-dashoffset:41;}.start .DToizyOn_16{animation:DToizyOn_draw 2800ms ease-out 38ms forwards;}.DToizyOn_17{stroke-dasharray:26 28;stroke-dashoffset:27;}.start .DToizyOn_17{animation:DToizyOn_draw 2800ms ease-out 40ms forwards;}.DToizyOn_18{stroke-dasharray:25 27;stroke-dashoffset:26;}.start .DToizyOn_18{animation:DToizyOn_draw 2800ms ease-out 42ms forwards;}.DToizyOn_19{stroke-dasharray:19 21;stroke-dashoffset:20;}.start .DToizyOn_19{animation:DToizyOn_draw 2800ms ease-out 45ms forwards;}.DToizyOn_20{stroke-dasharray:47 49;stroke-dashoffset:48;}.start .DToizyOn_20{animation:DToizyOn_draw 2800ms ease-out 47ms forwards;}.DToizyOn_21{stroke-dasharray:22 24;stroke-dashoffset:23;}.start .DToizyOn_21{animation:DToizyOn_draw 2800ms ease-out 50ms forwards;}.DToizyOn_22{stroke-dasharray:48 50;stroke-dashoffset:49;}.start .DToizyOn_22{animation:DToizyOn_draw 2800ms ease-out 52ms forwards;}.DToizyOn_23{stroke-dasharray:8 10;stroke-dashoffset:9;}.start .DToizyOn_23{animation:DToizyOn_draw 2800ms ease-out 54ms forwards;}.DToizyOn_24{stroke-dasharray:8 10;stroke-dashoffset:9;}.start .DToizyOn_24{animation:DToizyOn_draw 2800ms ease-out 57ms forwards;}.DToizyOn_25{stroke-dasharray:8 10;stroke-dashoffset:9;}.start .DToizyOn_25{animation:DToizyOn_draw 2800ms ease-out 59ms forwards;}.DToizyOn_26{stroke-dasharray:8 10;stroke-dashoffset:9;}.start .DToizyOn_26{animation:DToizyOn_draw 2800ms ease-out 61ms forwards;}.DToizyOn_27{stroke-dasharray:8 10;stroke-dashoffset:9;}.start .DToizyOn_27{animation:DToizyOn_draw 2800ms ease-out 64ms forwards;}.DToizyOn_28{stroke-dasharray:8 10;stroke-dashoffset:9;}.start .DToizyOn_28{animation:DToizyOn_draw 2800ms ease-out 66ms forwards;}.DToizyOn_29{stroke-dasharray:8 10;stroke-dashoffset:9;}.start .DToizyOn_29{animation:DToizyOn_draw 2800ms ease-out 69ms forwards;}.DToizyOn_30{stroke-dasharray:22 24;stroke-dashoffset:23;}.start .DToizyOn_30{animation:DToizyOn_draw 2800ms ease-out 71ms forwards;}.DToizyOn_31{stroke-dasharray:48 50;stroke-dashoffset:49;}.start .DToizyOn_31{animation:DToizyOn_draw 2800ms ease-out 73ms forwards;}.DToizyOn_32{stroke-dasharray:8 10;stroke-dashoffset:9;}.start .DToizyOn_32{animation:DToizyOn_draw 2800ms ease-out 76ms forwards;}.DToizyOn_33{stroke-dasharray:8 10;stroke-dashoffset:9;}.start .DToizyOn_33{animation:DToizyOn_draw 2800ms ease-out 78ms forwards;}.DToizyOn_34{stroke-dasharray:8 10;stroke-dashoffset:9;}.start .DToizyOn_34{animation:DToizyOn_draw 2800ms ease-out 80ms forwards;}.DToizyOn_35{stroke-dasharray:8 10;stroke-dashoffset:9;}.start .DToizyOn_35{animation:DToizyOn_draw 2800ms ease-out 83ms forwards;}.DToizyOn_36{stroke-dasharray:8 10;stroke-dashoffset:9;}.start .DToizyOn_36{animation:DToizyOn_draw 2800ms ease-out 85ms forwards;}.DToizyOn_37{stroke-dasharray:8 10;stroke-dashoffset:9;}.start .DToizyOn_37{animation:DToizyOn_draw 2800ms ease-out 88ms forwards;}.DToizyOn_38{stroke-dasharray:8 10;stroke-dashoffset:9;}.start .DToizyOn_38{animation:DToizyOn_draw 2800ms ease-out 90ms forwards;}.DToizyOn_39{stroke-dasharray:8 10;stroke-dashoffset:9;}.start .DToizyOn_39{animation:DToizyOn_draw 2800ms ease-out 92ms forwards;}.DToizyOn_40{stroke-dasharray:8 10;stroke-dashoffset:9;}.start .DToizyOn_40{animation:DToizyOn_draw 2800ms ease-out 95ms forwards;}.DToizyOn_41{stroke-dasharray:28 30;stroke-dashoffset:29;}.start .DToizyOn_41{animation:DToizyOn_draw 2800ms ease-out 97ms forwards;}.DToizyOn_42{stroke-dasharray:28 30;stroke-dashoffset:29;}.start .DToizyOn_42{animation:DToizyOn_draw 2800ms ease-out 100ms forwards;}.DToizyOn_43{stroke-dasharray:15 17;stroke-dashoffset:16;}.start .DToizyOn_43{animation:DToizyOn_draw 2800ms ease-out 102ms forwards;}.DToizyOn_44{stroke-dasharray:8 10;stroke-dashoffset:9;}.start .DToizyOn_44{animation:DToizyOn_draw 2800ms ease-out 104ms forwards;}.DToizyOn_45{stroke-dasharray:15 17;stroke-dashoffset:16;}.start .DToizyOn_45{animation:DToizyOn_draw 2800ms ease-out 107ms forwards;}.DToizyOn_46{stroke-dasharray:8 10;stroke-dashoffset:9;}.start .DToizyOn_46{animation:DToizyOn_draw 2800ms ease-out 109ms forwards;}.DToizyOn_47{stroke-dasharray:24 26;stroke-dashoffset:25;}.start .DToizyOn_47{animation:DToizyOn_draw 2800ms ease-out 111ms forwards;}.DToizyOn_48{stroke-dasharray:17 19;stroke-dashoffset:18;}.start .DToizyOn_48{animation:DToizyOn_draw 2800ms ease-out 114ms forwards;}.DToizyOn_49{stroke-dasharray:30 32;stroke-dashoffset:31;}.start .DToizyOn_49{animation:DToizyOn_draw 2800ms ease-out 116ms forwards;}.DToizyOn_50{stroke-dasharray:23 25;stroke-dashoffset:24;}.start .DToizyOn_50{animation:DToizyOn_draw 2800ms ease-out 119ms forwards;}.DToizyOn_51{stroke-dasharray:30 32;stroke-dashoffset:31;}.start .DToizyOn_51{animation:DToizyOn_draw 2800ms ease-out 121ms forwards;}.DToizyOn_52{stroke-dasharray:23 25;stroke-dashoffset:24;}.start .DToizyOn_52{animation:DToizyOn_draw 2800ms ease-out 123ms forwards;}.DToizyOn_53{stroke-dasharray:30 32;stroke-dashoffset:31;}.start .DToizyOn_53{animation:DToizyOn_draw 2800ms ease-out 126ms forwards;}.DToizyOn_54{stroke-dasharray:23 25;stroke-dashoffset:24;}.start .DToizyOn_54{animation:DToizyOn_draw 2800ms ease-out 128ms forwards;}.DToizyOn_55{stroke-dasharray:22 24;stroke-dashoffset:23;}.start .DToizyOn_55{animation:DToizyOn_draw 2800ms ease-out 130ms forwards;}.DToizyOn_56{stroke-dasharray:15 17;stroke-dashoffset:16;}.start .DToizyOn_56{animation:DToizyOn_draw 2800ms ease-out 133ms forwards;}.DToizyOn_57{stroke-dasharray:24 26;stroke-dashoffset:25;}.start .DToizyOn_57{animation:DToizyOn_draw 2800ms ease-out 135ms forwards;}.DToizyOn_58{stroke-dasharray:17 19;stroke-dashoffset:18;}.start .DToizyOn_58{animation:DToizyOn_draw 2800ms ease-out 138ms forwards;}.DToizyOn_59{stroke-dasharray:37 39;stroke-dashoffset:38;}.start .DToizyOn_59{animation:DToizyOn_draw 2800ms ease-out 140ms forwards;}.DToizyOn_60{stroke-dasharray:30 32;stroke-dashoffset:31;}.start .DToizyOn_60{animation:DToizyOn_draw 2800ms ease-out 142ms forwards;}.DToizyOn_61{stroke-dasharray:15 17;stroke-dashoffset:16;}.start .DToizyOn_61{animation:DToizyOn_draw 2800ms ease-out 145ms forwards;}.DToizyOn_62{stroke-dasharray:8 10;stroke-dashoffset:9;}.start .DToizyOn_62{animation:DToizyOn_draw 2800ms ease-out 147ms forwards;}.DToizyOn_63{stroke-dasharray:24 26;stroke-dashoffset:25;}.start .DToizyOn_63{animation:DToizyOn_draw 2800ms ease-out 150ms forwards;}.DToizyOn_64{stroke-dasharray:17 19;stroke-dashoffset:18;}.start .DToizyOn_64{animation:DToizyOn_draw 2800ms ease-out 152ms forwards;}.DToizyOn_65{stroke-dasharray:27 29;stroke-dashoffset:28;}.start .DToizyOn_65{animation:DToizyOn_draw 2800ms ease-out 154ms forwards;}.DToizyOn_66{stroke-dasharray:20 22;stroke-dashoffset:21;}.start .DToizyOn_66{animation:DToizyOn_draw 2800ms ease-out 157ms forwards;}.DToizyOn_67{stroke-dasharray:34 36;stroke-dashoffset:35;}.start .DToizyOn_67{animation:DToizyOn_draw 2800ms ease-out 159ms forwards;}.DToizyOn_68{stroke-dasharray:27 29;stroke-dashoffset:28;}.start .DToizyOn_68{animation:DToizyOn_draw 2800ms ease-out 161ms forwards;}.DToizyOn_69{stroke-dasharray:32 34;stroke-dashoffset:33;}.start .DToizyOn_69{animation:DToizyOn_draw 2800ms ease-out 164ms forwards;}.DToizyOn_70{stroke-dasharray:25 27;stroke-dashoffset:26;}.start .DToizyOn_70{animation:DToizyOn_draw 2800ms ease-out 166ms forwards;}.DToizyOn_71{stroke-dasharray:26 28;stroke-dashoffset:27;}.start .DToizyOn_71{animation:DToizyOn_draw 2800ms ease-out 169ms forwards;}.DToizyOn_72{stroke-dasharray:19 21;stroke-dashoffset:20;}.start .DToizyOn_72{animation:DToizyOn_draw 2800ms ease-out 171ms forwards;}.DToizyOn_73{stroke-dasharray:32 34;stroke-dashoffset:33;}.start .DToizyOn_73{animation:DToizyOn_draw 2800ms ease-out 173ms forwards;}.DToizyOn_74{stroke-dasharray:25 27;stroke-dashoffset:26;}.start .DToizyOn_74{animation:DToizyOn_draw 2800ms ease-out 176ms forwards;}.DToizyOn_75{stroke-dasharray:33 35;stroke-dashoffset:34;}.start .DToizyOn_75{animation:DToizyOn_draw 2800ms ease-out 178ms forwards;}.DToizyOn_76{stroke-dasharray:26 28;stroke-dashoffset:27;}.start .DToizyOn_76{animation:DToizyOn_draw 2800ms ease-out 180ms forwards;}.DToizyOn_77{stroke-dasharray:15 17;stroke-dashoffset:16;}.start .DToizyOn_77{animation:DToizyOn_draw 2800ms ease-out 183ms forwards;}.DToizyOn_78{stroke-dasharray:8 10;stroke-dashoffset:9;}.start .DToizyOn_78{animation:DToizyOn_draw 2800ms ease-out 185ms forwards;}.DToizyOn_79{stroke-dasharray:44 46;stroke-dashoffset:45;}.start .DToizyOn_79{animation:DToizyOn_draw 2800ms ease-out 188ms forwards;}.DToizyOn_80{stroke-dasharray:37 39;stroke-dashoffset:38;}.start .DToizyOn_80{animation:DToizyOn_draw 2800ms ease-out 190ms forwards;}.DToizyOn_81{stroke-dasharray:15 17;stroke-dashoffset:16;}.start .DToizyOn_81{animation:DToizyOn_draw 2800ms ease-out 192ms forwards;}.DToizyOn_82{stroke-dasharray:37 39;stroke-dashoffset:38;}.start .DToizyOn_82{animation:DToizyOn_draw 2800ms ease-out 195ms forwards;}.DToizyOn_83{stroke-dasharray:30 32;stroke-dashoffset:31;}.start .DToizyOn_83{animation:DToizyOn_draw 2800ms ease-out 197ms forwards;}.DToizyOn_84{stroke-dasharray:15 17;stroke-dashoffset:16;}.start .DToizyOn_84{animation:DToizyOn_draw 2800ms ease-out 200ms forwards;}@keyframes DToizyOn_draw{100%{stroke-dashoffset:0;}}@keyframes DToizyOn_fade{0%{stroke-opacity:1;}94.44444444444444%{stroke-opacity:1;}100%{stroke-opacity:0;}}</style></svg>