<svg xmlns="http://www.w3.org/2000/svg" viewBox="0 0 225.12 76.92"><style><![CDATA[.An{stroke-width:.6}.Ao{stroke-miterlimit:10}.Ap{fill:none}.Aq{stroke:#76777a}.Ar{fill:#76777a}.As{stroke-dasharray:15 17}.At{stroke-dashoffset:16}.Au{stroke-linejoin:round}.Av{stroke-dasharray:22 24}.Aw{stroke-dashoffset:23}.Ax{stroke-dasharray:24 26}.Ay{stroke-dashoffset:25}.Az{stroke-dasharray:30 32}.BA{stroke-dashoffset:31}.BB{stroke-dasharray:14 16}.BC{stroke-dashoffset:15}.BD{stroke-linecap:round}.BE{stroke-dasharray:19 21}.BF{stroke-dashoffset:20}.BG{stroke-dasharray:26 28}.BH{stroke-dashoffset:27}.BI{stroke-dasharray:48 50}.BJ{stroke-dashoffset:49}.BK{stroke-dasharray:8 10}.BL{stroke-dashoffset:9}.BM{stroke-dasharray:37 39}.BN{stroke-dashoffset:38}.BO{stroke-dasharray:32 34}.BP{stroke-dashoffset:33}]]></style><g class="Ap Aq"><path d="M224.62 35.74l-6.1-6.1-.2-.1h-50.2l-5.2-5.2-.2-.1H116.9v-11.6h1.25l.3-.3V9.12l-.12-.12v-.1L110 .5h-.43L102 8.82h-.18l-.3.3v3.23l.3.3H103v11.6H89.34V21.3l-.12-.12v-.1l-9-9-.2-.1H9.75l-.2.1-9 9v.1l-.12.12v3.23l.3.3h3v48.83l.3.3h55.54v2.13l.3.3h20.2l.3-.3v-2.8H93.1v2.8l.3.3h21.4l.3-.3v-2.8h11.52v2.8l.3.3h39.52l.3-.3V71h54.7l.3-.3V39.47H224l.3-.3v-2.93h.12z" stroke-dasharray="614 616" stroke-dashoffset="615" class="Au"/><g class="Ao"><path d="M89.26 21.1H.6m88.66 3.15H.6" stroke-dasharray="89 91" stroke-dashoffset="90"/><path d="M116.75 24.25h-13.6" class="BB BC"/></g><path d="M64.8 24.25l-9.07 9.08h115.84l-4.5-4.54" stroke-dasharray="136 138" stroke-dashoffset="137" class="An Au BD"/><g class="Ao"><path d="M116.75 12.65h-13.6" class="BB BC"/><g class="An"><path d="M118.75 9.15h-17.1" stroke-dasharray="18 20" stroke-dashoffset="19"/><path d="M107.93 15.73h4.1v5.3h-4.1z" class="BE BF"/></g></g></g><path d="M108.8 16.6h2.34v3.54h-2.34z" class="Ar"/><g class="Ap Aq An"><g class="Au BD"><path d="M171.57 33.33v3.47H55.72v-3.47" stroke-dasharray="123 125" stroke-dashoffset="124"/><path d="M171.56 35.95H224" stroke-dasharray="53 55" stroke-dashoffset="54"/><path d="M166.7 39.3H222" stroke-dasharray="56 58" stroke-dashoffset="57"/><path d="M166.5 36.8V71" stroke-dasharray="35 37" stroke-dashoffset="36"/><path d="M146.3 36.8v39.65M126.8 36.8v39.65M80 36.8v39.65M59.84 36.8v39.65" stroke-dasharray="40 42" stroke-dashoffset="41"/><path d="M116.75 73.14h-25.1" class="BG BH"/><path d="M113 73.14v-3.22H95.16v3.22" stroke-dasharray="25 27" stroke-dashoffset="26"/><path d="M110.12 70v-3.22H98.06V70" class="BE BF"/><path d="M126.77 66.77h-46.7" stroke-dasharray="47 49" stroke-dashoffset="48"/></g><g class="Ao"><path d="M80 59.48h14.43v7.3" class="Av Aw"/><path d="M83.87 51.35h8.3v15.42h-8.3z" class="BI BJ"/><path d="M93.33 59.48v7.3m-2.55-7.3v7.3m-1.4-7.3v7.3m-1.4-7.3v7.3m-1.4-7.3v7.3m-1.4-7.3v7.3m-2.65-7.3v7.3" class="BK BL"/><path d="M126.7 59.48h-14.43v7.3" class="Av Aw"/><path d="M114.56 51.35h8.3v15.42h-8.3z" class="BI BJ"/><path d="M113.38 59.48v7.3m2.55-7.3v7.3m1.4-7.3v7.3m1.4-7.3v7.3m1.4-7.3v7.3m1.4-7.3v7.3m2.65-7.3v7.3m1.3-7.3v7.3m-44.15-7.3v7.3" class="BK BL"/></g></g><path d="M84.73 52.15h6.52v7.33h-6.52zm30.7 0h6.52v7.33h-6.52z" class="Ar"/><path d="M116.9 38.67h4.1v3.1h-4.1z" class="An Ao Ap Aq As At"/><path d="M117.77 39.54h2.34v1.34h-2.34z" class="Ar"/><path d="M136.92 38.67h4.1v3.1h-4.1z" class="An Ao Ap Aq As At"/><path d="M137.8 39.54h2.34v1.34h-2.34z" class="Ar"/><path d="M136.92 49.87h4.1v7.64h-4.1z" class="An Ao Ap Aq Ax Ay"/><path d="M137.8 50.75h2.34v5.9h-2.34z" class="Ar"/><path d="M153.6 54h5.8v8.9h-5.8z" class="An Ao Ap Aq Az BA"/><path d="M154.48 54.86h4.04V62h-4.04z" class="Ar"/><path d="M172.45 41.4h5.8v8.9h-5.8z" class="An Ao Ap Aq Az BA"/><path d="M173.33 42.26h4.04v7.14h-4.04z" class="Ar"/><path d="M209.7 41.38h5.8v8.9h-5.8z" class="An Ao Ap Aq Az BA"/><path d="M210.6 42.26h4.04v7.14h-4.04z" class="Ar"/><path d="M192.35 41.4h5.8v5.14h-5.8z" class="An Ao Ap Aq Av Aw"/><path d="M193.23 42.26h4.04v3.4h-4.04z" class="Ar"/><path d="M184.36 55.96h5.8v6.14h-5.8z" class="An Ao Ap Aq Ax Ay"/><path d="M185.23 56.84h4.04v4.4h-4.04z" class="Ar"/><path d="M172.35 56.33h5.8v12.34h-5.8z" class="An Ao Ap Aq BM BN"/><path d="M173.23 57.2h4.04v10.6h-4.04z" class="Ar"/><path d="M67.44 38.67h4.1v3.1h-4.1z" class="An Ao Ap Aq As At"/><path d="M68.32 39.54h2.34v1.34h-2.34z" class="Ar"/><path d="M67.44 49.87h4.1v7.64h-4.1z" class="An Ao Ap Aq Ax Ay"/><path d="M68.32 50.75h2.34v5.9h-2.34z" class="Ar"/><path d="M12.3 50.37h6.1v7h-6.1z" stroke-dasharray="27 29" stroke-dashoffset="28" class="An Ao Ap Aq"/><path d="M13.16 51.24h4.34v5.24h-4.34z" class="Ar"/><path d="M44.03 50.37h8.9V58h-8.9z" stroke-dasharray="34 36" stroke-dashoffset="35" class="An Ao Ap Aq"/><path d="M44.9 51.25h7.14v5.9H44.9z" class="Ar"/><path d="M44.03 31.95h8.9v6.8h-8.9z" class="An Ao Ap Aq BO BP"/><path d="M44.9 32.82h7.14v5.04H44.9z" class="Ar"/><path d="M28.93 31.95h6.14v6.8h-6.14z" class="An Ao Ap Aq BG BH"/><path d="M29.8 32.83h4.4v5.04h-4.4z" class="Ar"/><path d="M28.94 50.3h6.14v9.8h-6.14z" class="An Ao Ap Aq BO BP"/><path d="M29.8 51.17h4.4v8.04h-4.4z" class="Ar"/><path d="M12.26 31.95h6.14v10.2h-6.14z" stroke-dasharray="33 35" stroke-dashoffset="34" class="An Ao Ap Aq"/><path d="M13.14 32.83h4.4v8.44h-4.4z" class="Ar"/><path d="M85.97 38.67h4.1v3.1h-4.1z" class="An Ao Ap Aq As At"/><path d="M86.85 39.54h2.34v1.34h-2.34z" class="Ar"/><path d="M96.5 51.6h14.24v7.44H96.5z" stroke-dasharray="44 46" stroke-dashoffset="45" class="An Ao Ap Aq"/><path d="M97.4 52.47h12.5v5.7H97.4z" class="Ar"/><g class="Ao Ap Aq"><path d="M180.18 71.04v-2.37h-9.97v2.37" stroke-width=".78" class="As At"/><path d="M209.75 56.33h5.8v12.34h-5.8z" class="An BM BN"/></g><path d="M210.63 57.2h4.04v10.6h-4.04z" class="Ar"/><path d="M217.6 71.04v-2.37h-9.98v2.37" stroke-width=".78" class="Ao Ap Aq As At"/></svg>