<svg xmlns="http://www.w3.org/2000/svg" xmlns:xlink="http://www.w3.org/1999/xlink" viewBox="0 0 282.02 874.05"><defs><style>.cls-1{fill:none;}.cls-2{fill:#fff;}.cls-3{clip-path:url(#clip-path);}.cls-4{fill:#28347b;}.cls-5{clip-path:url(#clip-path-2);}</style><clipPath id="clip-path" transform="translate(15.23)"><path id="SVGID" class="cls-1" d="M205.06,361.81s.76-18.88-.05-37.25a93,93,0,0,0-24.65-58.09c-8.37-8.93-24.48-21.15-30.18-28-9.64-11.52-7.5-19.87-7.5-40.82V52.18a9.34,9.34,0,0,0,2.95-6.81V24.59a9.36,9.36,0,0,0-2.95-6.82v-9A8.73,8.73,0,0,0,134,0H71.43A8.73,8.73,0,0,0,62.7,8.73v9a9.36,9.36,0,0,0-3,6.82V45.37a9.34,9.34,0,0,0,3,6.81V197.7c0,21,2.14,29.3-7.5,40.82-5.69,6.8-21.81,19-30.18,28A93.07,93.07,0,0,0,.37,324.56c-.81,18.37,0,37.25,0,37.25V834.26S-.13,844,4.15,850.68,24.08,874.35,88.67,874h.51l13.51-.07,13.51.07h.51c64.59.31,80.25-16.69,84.53-23.36s3.82-16.42,3.82-16.42Z"/></clipPath><clipPath id="clip-path-2" transform="translate(15.23)"><path id="SVGID-2" data-name="SVGID" class="cls-1" d="M175.07,745.51a557.71,557.71,0,0,1-145.23,0c-8.2-1.19-14.82-9-14.82-17.27V406.65c0-8.23,6.62-16.08,14.82-17.26a556.84,556.84,0,0,1,145.23,0c8.2,1.18,14.82,9,14.82,17.26V728.24C189.89,736.47,183.27,744.32,175.07,745.51Z"/></clipPath></defs><title>bottleAtivo 1</title><g id="Camada_2" data-name="Camada 2"><g id="Camada_1-2" data-name="Camada 1"><path class="cls-2" d="M205.06,361.81s.76-18.88-.05-37.25a93,93,0,0,0-24.65-58.09c-8.37-8.93-24.48-21.15-30.18-28-9.64-11.52-7.5-19.87-7.5-40.82V52.18a9.34,9.34,0,0,0,2.95-6.81V24.59a9.36,9.36,0,0,0-2.95-6.82v-9A8.73,8.73,0,0,0,134,0H71.43A8.73,8.73,0,0,0,62.7,8.73v9a9.36,9.36,0,0,0-3,6.82V45.37a9.34,9.34,0,0,0,3,6.81V197.7c0,21,2.14,29.3-7.5,40.82-5.69,6.8-21.81,19-30.18,28A93.07,93.07,0,0,0,.37,324.56c-.81,18.37,0,37.25,0,37.25V834.26S-.13,844,4.15,850.68,24.08,874.35,88.67,874h.51l13.51-.07,13.51.07h.51c64.59.31,80.25-16.69,84.53-23.36s3.82-16.42,3.82-16.42Z" transform="translate(15.23)"/><g class="cls-3"><path class="cls-4" d="M175.07,745.51a557.71,557.71,0,0,1-145.23,0c-8.2-1.19-14.82-9-14.82-17.27V406.65c0-8.23,6.62-16.08,14.82-17.26a556.84,556.84,0,0,1,145.23,0c8.2,1.18,14.82,9,14.82,17.26V728.24C189.89,736.47,183.27,744.32,175.07,745.51Z" transform="translate(15.23)"/><g class="cls-5"><path class="cls-2" d="M-13.94,409.68H-3.27l-5.33-5.34ZM247.94,405h0l-12.22-12.21L223.5,405l-12.21-12.22L199.07,405h0l-12.21-12.21L174.64,405l-12.21-12.21L150.21,405h0L138,392.82,125.78,405l-12.22-12.22L101.34,405h0L89.13,392.82,76.91,405,64.7,392.82,52.48,405h0L40.27,392.82,28.05,405,15.83,392.82,3.61,405h0L-8.6,392.82l-6.63,6.63v4.64l6.63-6.62L3.61,409.68v0l12.22-12.21L28,409.66l12.22-12.19,12.22,12.21v0L64.7,397.47l12.21,12.21,12.22-12.21,12.21,12.21v0l12.22-12.21,12.21,12.17L138,397.47l12.21,12.21v0l12.22-12.21,12.21,12.21,12.22-12.21,12.21,12.21v0l12.22-12.21,12.21,12.19,12.22-12.19,12.21,12.21v0l12.21-12.21,6.63,6.62v-4.64l-6.62-6.63ZM10.49,409.68H21.17l-5.34-5.34Zm-25.72-25.44v8.33L-8.6,386l12.21,12.2v0L15.83,386,28,398.14,40.26,386l12.22,12.2v0L64.7,386l12.21,12.2L89.13,386l12.21,12.2v0L113.56,386l12.21,12.16L138,386l12.21,12.2v0L162.43,386l12.21,12.2L186.86,386l12.21,12.2v0L211.29,386l12.21,12.19L235.72,386l12.21,12.2v0L260.15,386l6.63,6.62v-8.33Zm18.84,9.28h0Zm48.87,0h0Zm48.86,0h0Zm48.87,0h0Zm48.86,0h0Zm48.87,0h0Zm-42,16.16h10.67l-5.33-5.34Zm-24.43,0h10.67l-5.34-5.34Zm73.3,0h10.67l-5.34-5.34Zm-24.44,0h10.68l-5.34-5.34Zm-73.29,0h10.67l-5.34-5.34Zm-122.16,0H45.6l-5.34-5.34Zm48.86,0H94.46l-5.33-5.34Zm-24.43,0H70l-5.33-5.34Zm73.3,0h10.67L138,404.34Zm-24.44,0H118.9l-5.34-5.34Z" transform="translate(15.23)"/></g></g><ellipse class="cls-4" cx="168.67" cy="296.23" rx="9.21" ry="21.96" transform="translate(-82.68 83.78) rotate(-21.79)"/></g></g></svg>