<svg xmlns="http://www.w3.org/2000/svg" viewBox="0 0 282.02 874.05"><defs><clipPath id="A" transform="translate(15.23)"><path d="M205.06 361.8s.76-18.88-.05-37.25a93 93 0 0 0-24.65-58.09c-8.37-8.93-24.48-21.15-30.18-28-9.64-11.52-7.5-19.87-7.5-40.82V52.18a9.34 9.34 0 0 0 2.95-6.81V24.6a9.36 9.36 0 0 0-2.95-6.82v-9A8.73 8.73 0 0 0 134 0H71.43a8.73 8.73 0 0 0-8.73 8.73v9a9.36 9.36 0 0 0-3 6.82v20.82a9.34 9.34 0 0 0 3 6.81V197.7c0 21 2.14 29.3-7.5 40.82-5.7 6.8-21.8 19-30.18 28A93.07 93.07 0 0 0 .37 324.56c-.8 18.37 0 37.25 0 37.25v472.45s-.5 9.74 3.78 16.42S24.08 874.35 88.67 874h.5l13.5-.07 14.02.07c64.6.3 80.25-16.7 84.53-23.36s3.82-16.42 3.82-16.42z" fill="none"/></clipPath><clipPath id="B" transform="translate(15.23)"><path d="M175.07 745.5a557.71 557.71 0 0 1-145.23 0c-8.2-1.2-14.82-9-14.82-17.27v-321.6c0-8.23 6.62-16.08 14.82-17.26a556.84 556.84 0 0 1 145.23 0c8.2 1.18 14.82 9 14.82 17.26v321.6c0 8.23-6.62 16.08-14.82 17.27z" fill="none"/></clipPath></defs><path d="M220.3 361.8s.76-18.88-.05-37.25a93 93 0 0 0-24.65-58.09c-8.37-8.93-24.48-21.15-30.18-28-9.64-11.52-7.5-19.87-7.5-40.82V52.18a9.34 9.34 0 0 0 2.95-6.81V24.6a9.36 9.36 0 0 0-2.95-6.82v-9A8.73 8.73 0 0 0 149.23 0H86.66a8.73 8.73 0 0 0-8.73 8.73v9a9.36 9.36 0 0 0-3 6.82v20.82a9.34 9.34 0 0 0 3 6.81V197.7c0 21 2.14 29.3-7.5 40.82-5.7 6.8-21.8 19-30.18 28a93.07 93.07 0 0 0-24.65 58.04c-.8 18.37 0 37.25 0 37.25v472.45s-.5 9.74 3.78 16.42S39.3 874.35 103.9 874h.5l13.5-.07 14.02.07c64.6.3 80.25-16.7 84.53-23.36s3.82-16.42 3.82-16.42z" fill="#fff"/><g clip-path="url(#A)"><path d="M190.3 745.5a557.71 557.71 0 0 1-145.23 0c-8.2-1.2-14.82-9-14.82-17.27v-321.6c0-8.23 6.62-16.08 14.82-17.26a556.84 556.84 0 0 1 145.23 0c8.2 1.18 14.82 9 14.82 17.26v321.6c0 8.23-6.62 16.08-14.82 17.27z" fill="#28347b"/><g clip-path="url(#B)"><path d="M1.3 409.68h10.67l-5.33-5.34zM263.17 405h0l-12.22-12.2-12.22 12.2-12.2-12.22L214.3 405l-12.2-12.2-12.22 12.2-12.2-12.2-12.22 12.2-12.2-12.18L141 405l-12.22-12.22L116.57 405l-12.2-12.18L92.14 405l-12.2-12.18L67.7 405l-12.2-12.18L43.28 405l-12.22-12.18L18.84 405l-12.2-12.18L0 399.45v4.64l6.63-6.62 12.2 12.2 12.22-12.2 12.17 12.2 12.22-12.2 12.22 12.2 12.26-12.2 12.2 12.2 12.22-12.2 12.2 12.2 12.22-12.2 12.2 12.17 12.23-12.17 12.2 12.2 12.22-12.2 12.2 12.2 12.22-12.2 12.2 12.2 12.22-12.2 12.2 12.2 12.22-12.2 12.2 12.2 12.2-12.2 6.63 6.62v-4.64l-6.62-6.63zm-237.45 4.68H36.4l-5.34-5.34zM0 384.24v8.33L6.63 386l12.2 12.2L31.06 386l12.17 12.14L55.5 386l12.22 12.2L79.93 386l12.2 12.2 12.22-12.2 12.2 12.2L128.8 386l12.2 12.16L153.23 386l12.2 12.2 12.22-12.2 12.2 12.2L202.1 386l12.2 12.2 12.22-12.2 12.2 12.2 12.22-12.2 12.2 12.2 12.22-12.2 6.63 6.62v-8.33zm18.84 9.28h0zm48.87 0h0zm48.86 0h0zm48.87 0h0zm48.86 0h0zm48.87 0h0zm-42 16.16h10.67l-5.33-5.34zm-24.43 0h10.67l-5.34-5.34zm73.3 0h10.67l-5.34-5.34zm-24.44 0h10.68l-5.34-5.34zm-73.3 0h10.67l-5.34-5.34zm-122.16 0h10.68l-5.34-5.34zm48.86 0h10.68l-5.33-5.34zm-24.43 0h10.65l-5.33-5.34zm73.3 0h10.67l-5.32-5.34zm-24.44 0h10.7l-5.34-5.34z" fill="#fff"/></g></g><ellipse cx="168.67" cy="296.23" rx="9.21" ry="21.96" transform="matrix(.928551 -.371206 .371206 .928551 -82.68 83.78)" fill="#28347b"/></svg>