<svg xmlns="http://www.w3.org/2000/svg" width="1918" height="32" viewBox="0 0 1918 32"><g><g><path fill="#fff" d="M0 31.476h1323.157V.019H0z"/></g><g><path fill="#ad953e" d="M250.907 31.477l-6.495-6.496-6.497 6.496z"/></g><g><path fill="#ad953e" d="M221.171 31.477l-6.496-6.496-6.496 6.496z"/></g><g><path fill="#ad953e" d="M280.648 31.477l-6.496-6.496-6.496 6.496z"/></g><g><path fill="#ad953e" d="M310.388 31.477l-6.496-6.496-6.496 6.496z"/></g><g><path fill="#ad953e" d="M161.69 31.477l-6.496-6.496-6.496 6.496z"/></g><g><path fill="#ad953e" d="M191.43 31.477l-6.495-6.496-6.496 6.496z"/></g><g><path fill="#ad953e" d="M0 31.476h12.993L6.495 24.98z"/></g><g><path fill="#ad953e" d="M42.733 31.477l-6.496-6.496-6.497 6.496z"/></g><g><path fill="#ad953e" d="M131.95 31.477l-6.497-6.496-6.496 6.496z"/></g><g><path fill="#ad953e" d="M102.214 31.477l-6.496-6.496-6.496 6.496z"/></g><g><path fill="#ad953e" d="M72.473 31.477l-6.495-6.496-6.497 6.496z"/></g><g><path fill="#ad953e" d="M327.137 31.477H340.13l-6.496-6.496-6.495 6.496z"/></g><g><path fill="#ad953e" d="M369.87 31.477l-6.496-6.496-6.496 6.496z"/></g><g><path fill="#ad953e" d="M399.611 31.477l-6.496-6.496-6.496 6.496z"/></g><g><path fill="#ad953e" d="M607.786 31.477l-6.496-6.496-6.496 6.496z"/></g><g><path fill="#ad953e" d="M578.045 31.477l-6.496-6.496-6.496 6.496z"/></g><g><path fill="#ad953e" d="M637.527 31.477l-6.496-6.496-6.496 6.496z"/></g><g><path fill="#ad953e" d="M429.352 31.477l-6.496-6.496-6.496 6.496z"/></g><g><path fill="#ad953e" d="M459.088 31.477l-6.496-6.496-6.496 6.496z"/></g><g><path fill="#ad953e" d="M518.569 31.477l-6.496-6.496-6.496 6.496z"/></g><g><path fill="#ad953e" d="M488.828 31.477l-6.496-6.496-6.496 6.496z"/></g><g><path fill="#ad953e" d="M548.31 31.477l-6.496-6.496-6.496 6.496z"/></g><g><path fill="#ad953e" d="M905.223 31.477l-6.496-6.496-6.496 6.496z"/></g><g><path fill="#ad953e" d="M875.488 31.477l-6.496-6.496-6.496 6.496z"/></g><g><path fill="#ad953e" d="M934.964 31.477l-6.496-6.496-6.495 6.496z"/></g><g><path fill="#ad953e" d="M964.705 31.477l-6.496-6.496-6.496 6.496z"/></g><g><path fill="#ad953e" d="M816.006 31.477l-6.496-6.496-6.496 6.496z"/></g><g><path fill="#ad953e" d="M845.746 31.477l-6.495-6.496-6.497 6.496z"/></g><g><path fill="#ad953e" d="M654.316 31.477h12.992l-6.496-6.496-.02.02-.02-.02-6.497 6.496z"/></g><g><path fill="#ad953e" d="M697.048 31.477l-6.496-6.496-6.496 6.496z"/></g><g><path fill="#ad953e" d="M786.265 31.477l-6.496-6.496-6.496 6.496z"/></g><g><path fill="#ad953e" d="M756.53 31.477l-6.497-6.496-6.496 6.496z"/></g><g><path fill="#ad953e" d="M726.79 31.477l-6.497-6.496-6.496 6.496z"/></g><g><path fill="#ad953e" d="M981.454 31.477H994.446l-6.496-6.496-6.497 6.496z"/></g><g><path fill="#ad953e" d="M1024.186 31.477l-6.495-6.496-6.497 6.496z"/></g><g><path fill="#ad953e" d="M1053.927 31.477l-6.496-6.496-6.496 6.496z"/></g><g><path fill="#ad953e" d="M1262.102 31.477l-6.496-6.496-6.495 6.496z"/></g><g><path fill="#ad953e" d="M1321.583 31.477l-6.496-6.496-6.496 6.496z"/></g><g><path fill="#ad953e" d="M21.367 11.798l.002.002v.007zm178.438 0V11.807zm59.478 0V11.807zm59.479 0l.002.002v.007zm29.743 0l.002.002v.007zm59.48 0l.002.002v.007zm59.478 0l.002.002v.007zm59.479 0l.002.002v.007zm59.478 0l.002.002v.007zm89.263 0l.002.002v.007zm59.48 0l.002.002v.007zm59.478 0l.002.002v.007zm446.095 0l.002.002v.007zM0 .51v8.57l6.498-6.492 14.864 14.86.005-.023v.023l14.87-14.86L51.103 17.43 65.979 2.588l14.864 14.86.006-.023v.023l14.869-14.86 14.866 14.86 14.87-14.86 14.865 14.86.006-.023v.023l14.87-14.86 14.865 14.81 14.877-14.81 14.864 14.86.004-.023v.023l14.87-14.86 14.867 14.86 14.87-14.86 14.865 14.86.006-.023v.023l14.87-14.86 14.865 14.842 14.875-14.842 14.866 14.86.003-.023v.023l6.803-6.795v.002l8.07-8.065 8.069 8.066v-.001l6.795 6.793.006-.023v.023l14.87-14.86L378.24 17.43l14.877-14.842 14.864 14.86.004-.023v.023l14.873-14.86 14.864 14.86 14.87-14.86 14.865 14.86.006-.023v.023l14.87-14.86 14.865 14.81 14.877-14.81 14.864 14.86.003-.023v.023l14.872-14.86 14.866 14.86 14.87-14.86 14.865 14.86.005-.023v.023l14.872-14.86 14.864 14.842 14.877-14.842 14.864 14.86.005-.023v.023l6.839-6.835v.042l8.052-8.045 8.049 8.046v-.042l6.836 6.834.005-.023v.023l14.87-14.86 14.865 14.842 14.877-14.842 14.864 14.86.004-.023v.023l14.87-14.86 14.867 14.86 14.87-14.86 14.865 14.86.006-.023v.023l14.87-14.86 14.865 14.81 14.877-14.81 14.864 14.86.005-.023v.023l14.872-14.86 14.864 14.86 14.87-14.86 14.865 14.86.005-.023v.023l14.872-14.86 14.864 14.842L958.21 2.588l14.864 14.86.005-.023v.023l6.8-6.795v.002l8.07-8.065 8.07 8.066v-.001l6.795 6.793.006-.023v.023l14.87-14.86 14.865 14.842 14.877-14.842 14.864 14.86.005-.023v.023l14.872-14.86 14.864 14.86 14.87-14.86 14.867 14.86.004-.023v.023l14.87-14.86 14.865 14.81 14.877-14.81 14.864 14.86.005-.023v.023l14.872-14.86 14.864 14.86 14.87-14.86 14.865 14.86.005-.023v.023l14.872-14.86 14.864 14.842 14.876-14.842 14.865 14.86.005-.023v.023l14.87-14.86 8.07 8.068V.51z"/></g><g><path fill="#ad953e" d="M1300.218 25.824l-14.868-14.868-14.873 14.875-14.868-14.875-14.871 14.868v.007l-.002-.007-14.867-14.868-14.87 14.866-14.866-14.866-14.873 14.868-14.867-14.868-14.874 14.879-14.867-14.88-14.873 14.869-14.868-14.868-14.87 14.866-14.865-14.866-14.874 14.868-14.867-14.868-14.873 14.875-14.868-14.875-14.873 14.868-14.868-14.868-14.873 14.868-14.868-14.868-14.873 14.875-14.867-14.875-14.874 14.868-14.867-14.868-14.87 14.866-14.865-14.866-14.874 14.868-14.867-14.868-14.873 14.879-14.868-14.88-14.871 14.869v.007l-.002-.007-14.868-14.868-14.87 14.866-14.865-14.866-14.873 14.868v.007l-.002-.007-14.866-14.868-14.875 14.875-14.866-14.875-14.871 14.868v.007l-.002-.007-14.868-14.868-.02.02-.02-.02-14.873 14.868-14.868-14.868L616.16 25.83l-14.867-14.875-14.872 14.868v.007l-.002-.007-14.867-14.868-14.87 14.866-14.866-14.866-14.873 14.868v.007l-.002-.007-14.865-14.868-14.874 14.879-14.867-14.88-14.871 14.869v.007l-.002-.007-14.868-14.868-14.87 14.866-14.865-14.866-14.873 14.868v.007l-.002-.007-14.866-14.868-14.875 14.875-14.866-14.875-14.871 14.868v.007l-.002-.007-14.868-14.868-14.873 14.868v.007l-.002-.007-14.866-14.868-14.873 14.875-14.867-14.875-14.872 14.868v.007l-.001-.007-14.868-14.868-14.87 14.866-14.865-14.866-14.874 14.868v.007l-.001-.007-14.866-14.868-14.875 14.879-14.866-14.88-14.873 14.869-14.868-14.868-14.87 14.866-14.865-14.866-14.873 14.868L65.98 10.956 51.108 25.83 36.24 10.956 21.369 25.824v.007l-.002-.007L6.499 10.956l-6.5 6.498v5.65l6.499-6.49 14.864 14.858.005-.022v.022l14.87-14.858 14.865 14.84 14.877-14.84 14.864 14.858.006-.022v.022l14.869-14.858 14.866 14.858 14.87-14.858 14.865 14.858.006-.022v.022l14.87-14.858 14.865 14.809 14.877-14.81L199.8 31.473l.004-.022v.022l14.87-14.858 14.867 14.858 14.87-14.858 14.865 14.858.006-.022v.022l14.87-14.858 14.865 14.84 14.875-14.84 14.866 14.858.003-.022v.022l6.803-6.795v.002l8.07-8.065 8.069 8.065 6.795 6.793.006-.022v.022l14.87-14.858 14.865 14.84 14.877-14.84 14.864 14.858.004-.022v.022l14.873-14.858 14.864 14.858 14.87-14.858 14.865 14.858.006-.022v.022l14.87-14.858 14.865 14.809 14.877-14.81 14.864 14.859.003-.022v.022l14.872-14.858 14.866 14.858 14.87-14.858 14.865 14.858.005-.022v.022l14.872-14.858 14.864 14.84 14.877-14.84 14.864 14.858.005-.022v.022l6.839-6.835v.042l8.052-8.045 8.049 8.045v-.04l6.836 6.833.005-.022v.022l14.87-14.858 14.865 14.84 14.877-14.84 14.864 14.858.004-.022v.022l14.87-14.858L764.9 31.472l14.87-14.858 14.865 14.858.006-.022v.022l14.87-14.858 14.865 14.809 14.877-14.81 14.864 14.859.005-.022v.022l14.872-14.858 14.864 14.858 14.87-14.858 14.865 14.858.005-.022v.022l14.872-14.858 14.864 14.84 14.877-14.84 14.864 14.858.005-.022v.022l6.8-6.795v.002l8.07-8.065 8.07 8.065 6.795 6.793.006-.022v.022l14.87-14.858 14.865 14.84 14.877-14.84 14.864 14.858.005-.022v.022l14.872-14.858 14.864 14.858 14.87-14.858 14.867 14.858.004-.022v.022l14.87-14.858 14.865 14.809 14.877-14.81 14.864 14.859.005-.022v.022l14.872-14.858 14.864 14.858 14.87-14.858 14.865 14.858.005-.022v.022l14.872-14.858 14.864 14.84 14.876-14.84 14.865 14.858.005-.022v.022l14.87-14.858 8.07 8.065v-5.656l-8.067-8.067z"/></g><g><path fill="#ad953e" d="M1232.361 31.477l-6.496-6.496-6.496 6.496z"/></g><g><path fill="#ad953e" d="M1291.843 31.477l-6.496-6.496-6.496 6.496z"/></g><g><path fill="#ad953e" d="M1083.668 31.477l-6.496-6.496-6.495 6.496z"/></g><g><path fill="#ad953e" d="M1113.404 31.477l-6.496-6.496-6.496 6.496z"/></g><g><path fill="#ad953e" d="M1172.885 31.477l-6.496-6.496-6.496 6.496z"/></g><g><path fill="#ad953e" d="M1143.144 31.477l-6.496-6.496-6.496 6.496z"/></g><g><path fill="#ad953e" d="M1202.626 31.477l-6.496-6.496-6.496 6.496z"/></g><g><path fill="#fff" d="M593.239 31.476h1324.564V.019H593.239z"/></g><g><path fill="#ad953e" d="M845.722 31.477l-6.496-6.496-6.496 6.496z"/></g><g><path fill="#ad953e" d="M815.986 31.477l-6.496-6.496-6.495 6.496z"/></g><g><path fill="#ad953e" d="M875.463 31.477l-6.496-6.496-6.496 6.496z"/></g><g><path fill="#ad953e" d="M905.203 31.477l-6.496-6.496-6.496 6.496z"/></g><g><path fill="#ad953e" d="M756.505 31.477l-6.496-6.496-6.496 6.496z"/></g><g><path fill="#ad953e" d="M786.245 31.477l-6.496-6.496-6.496 6.496z"/></g><g><path fill="#ad953e" d="M607.807 31.477l-6.496-6.496-6.496 6.496z"/></g><g><path fill="#ad953e" d="M637.547 31.477l-6.496-6.496-6.496 6.496z"/></g><g><path fill="#ad953e" d="M726.764 31.477l-6.496-6.496-6.496 6.496z"/></g><g><path fill="#ad953e" d="M697.028 31.477l-6.496-6.496-6.496 6.496z"/></g><g><path fill="#ad953e" d="M667.287 31.477l-6.495-6.496-6.497 6.496z"/></g><g><path fill="#ad953e" d="M921.952 31.477H934.944l-6.496-6.496-6.496 6.496z"/></g><g><path fill="#ad953e" d="M964.685 31.477l-6.496-6.496-6.496 6.496z"/></g><g><path fill="#ad953e" d="M994.426 31.477l-6.496-6.496-6.496 6.496z"/></g><g><path fill="#ad953e" d="M1202.6 31.477l-6.495-6.496-6.497 6.496z"/></g><g><path fill="#ad953e" d="M1172.86 31.477l-6.496-6.496-6.497 6.496z"/></g><g><path fill="#ad953e" d="M1232.34 31.477l-6.495-6.496-6.495 6.496z"/></g><g><path fill="#ad953e" d="M1024.166 31.477l-6.496-6.496-6.496 6.496z"/></g><g><path fill="#ad953e" d="M1053.902 31.477l-6.496-6.496-6.496 6.496z"/></g><g><path fill="#ad953e" d="M1113.383 31.477l-6.496-6.496-6.496 6.496z"/></g><g><path fill="#ad953e" d="M1083.642 31.477l-6.496-6.496-6.496 6.496z"/></g><g><path fill="#ad953e" d="M1143.124 31.477l-6.496-6.496-6.496 6.496z"/></g><g><path fill="#ad953e" d="M1500.038 31.477l-6.496-6.496-6.496 6.496z"/></g><g><path fill="#ad953e" d="M1470.302 31.477l-6.496-6.496-6.496 6.496z"/></g><g><path fill="#ad953e" d="M1529.779 31.477l-6.496-6.496-6.495 6.496z"/></g><g><path fill="#ad953e" d="M1559.52 31.477l-6.497-6.496-6.496 6.496z"/></g><g><path fill="#ad953e" d="M1410.82 31.477l-6.495-6.496-6.496 6.496z"/></g><g><path fill="#ad953e" d="M1440.56 31.477l-6.494-6.496-6.497 6.496z"/></g><g><path fill="#ad953e" d="M1249.13 31.477H1262.123l-6.495-6.496-.021.02-.02-.02-6.496 6.496z"/></g><g><path fill="#ad953e" d="M1291.863 31.477l-6.496-6.496-6.496 6.496z"/></g><g><path fill="#ad953e" d="M1381.08 31.477l-6.496-6.496-6.496 6.496z"/></g><g><path fill="#ad953e" d="M1351.344 31.477l-6.496-6.496-6.496 6.496z"/></g><g><path fill="#ad953e" d="M1321.604 31.477l-6.496-6.496-6.496 6.496z"/></g><g><path fill="#ad953e" d="M1576.269 31.477h12.992l-6.496-6.496h-.001l-6.496 6.496z"/></g><g><path fill="#ad953e" d="M1619 31.477l-6.494-6.496-6.497 6.496z"/></g><g><path fill="#ad953e" d="M1648.742 31.477l-6.496-6.496-6.496 6.496z"/></g><g><path fill="#ad953e" d="M1856.916 31.477l-6.496-6.496-6.495 6.496z"/></g><g><path fill="#ad953e" d="M1916.398 31.477l-6.496-6.496-6.496 6.496z"/></g><g><path fill="#ad953e" d="M616.18 11.798l.003.002v.007zm118.959 0l.002.002v.007zm59.48 0V11.807zm59.478 0V11.807zm89.222 0l.002.002v.007zm118.958 0V11.807zm59.48 0l.003.002v.007zm59.477 0l.002.002v.007zm59.482 0l.002.002v.007zm29.78 0l.003.002v.007zm118.959 0l.002.002v.007zm118.957 0l.002.002v.007zm59.482 0l.002.002v.007zm29.74 0l.003.002v.007zm118.959 0V11.807zm118.957 0l.002.002v.007zm59.482 0l.002.002v.007zM593.239.51v10.145l8.073-8.067 14.864 14.86.005-.023v.023l14.87-14.86 14.865 14.842 14.877-14.842 14.864 14.86.006-.023v.023l14.87-14.86 14.865 14.86 14.87-14.86 14.865 14.86.006-.023v.023l14.87-14.86 14.865 14.81 14.877-14.81 14.864 14.86.004-.023v.023l14.873-14.86 14.864 14.86 14.87-14.86 14.865 14.86.006-.023v.023l14.87-14.86 14.865 14.842 14.875-14.842 14.866 14.86.005-.023v.023l6.8-6.795v.002l8.07-8.065 8.07 8.066v-.001l6.795 6.793.006-.023v.023l14.87-14.86 14.865 14.842L987.93 2.588l14.864 14.86.006-.023v.023l14.87-14.86 14.865 14.86 14.87-14.86 14.865 14.86.006-.023v.023l14.87-14.86 14.865 14.81 14.877-14.81 14.864 14.86.005-.023v.023l14.872-14.86 14.864 14.86 14.87-14.86 14.865 14.86.005-.023v.023l14.872-14.86 14.864 14.842 14.877-14.842 14.864 14.86.005-.023v.023l6.84-6.835v.042l8.05-8.045 8.05 8.046v-.042l6.836 6.834.005-.023v.023l14.87-14.86 14.865 14.842 14.877-14.842 14.864 14.86.006-.023v.023l14.87-14.86 14.865 14.86 14.87-14.86 14.865 14.86.006-.023v.023l14.87-14.86 14.865 14.81 14.877-14.81 14.864 14.86.005-.023v.023l14.872-14.86 14.864 14.86 14.87-14.86 14.865 14.86.005-.023v.023l14.872-14.86 14.864 14.842 14.877-14.842 14.864 14.86.005-.023v.023l6.8-6.795v.002l8.07-8.065 8.07 8.066v-.001l6.795 6.793.006-.023v.023l14.87-14.86 14.865 14.842 14.877-14.842 14.864 14.86.006-.023v.023l14.87-14.86 14.865 14.86 14.87-14.86 14.867 14.86.004-.023v.023l14.87-14.86 14.865 14.81 14.877-14.81 14.864 14.86.005-.023v.023l14.872-14.86 14.864 14.86 14.87-14.86 14.865 14.86.005-.023v.023l14.872-14.86 14.864 14.842 14.876-14.842 14.865 14.86.005-.023v.023l14.87-14.86 7.902 7.9V.51z"/></g><g><path fill="#ad953e" d="M1895.034 25.824v.007l-.002-.007-14.868-14.868-14.873 14.875-14.867-14.875-14.872 14.868v.007l-.001-.007-14.866-14.868-14.872 14.866-14.865-14.866-14.874 14.868-14.867-14.868-14.873 14.879-14.868-14.88-14.871 14.869v.007l-.002-.007-14.868-14.868-14.87 14.866-14.865-14.866-14.873 14.868-14.868-14.868-14.873 14.875-14.868-14.875-14.871 14.868v.007l-.002-.007-14.868-14.868-14.871 14.868v.007l-.002-.007-14.867-14.868-14.873 14.875-14.868-14.875-14.872 14.868v.007l-.001-.007-14.868-14.868-14.87 14.866-14.865-14.866-14.873 14.868-14.868-14.868-14.873 14.879-14.868-14.88-14.871 14.869v.007l-.002-.007-14.868-14.868-14.87 14.866-14.865-14.866-14.873 14.868-14.868-14.868-14.875 14.875-14.866-14.875-14.871 14.868v.007l-.002-.007-14.867-14.868-.021.02-.02-.02-14.871 14.868v.007l-.002-.007-14.867-14.868-14.874 14.875-14.867-14.875-14.872 14.868v.007l-.001-.007-14.868-14.868-14.87 14.866-14.865-14.866-14.872 14.868v.007l-.002-.007-14.867-14.868-14.873 14.879-14.868-14.88-14.871 14.869v.007l-.002-.007-14.868-14.868-14.87 14.866-14.865-14.866-14.873 14.868-14.868-14.868L973.06 25.83l-14.868-14.875-14.871 14.868v.007l-.002-.007-14.868-14.868-14.873 14.868-14.867-14.868-14.873 14.875-14.868-14.875-14.871 14.868v.007l-.002-.007-14.868-14.868-14.87 14.866-14.865-14.866-14.873 14.868v.007l-.002-.007-14.866-14.868-14.873 14.879-14.868-14.88-14.871 14.869v.007l-.002-.007-14.868-14.868-14.87 14.866-14.865-14.866-14.873 14.868-14.868-14.868-14.873 14.875-14.867-14.875-14.872 14.868v.007l-.002-.007-14.867-14.868-8.074 8.073v5.65l8.072-8.065 14.864 14.858.005-.022v.022l14.872-14.858 14.864 14.84 14.876-14.84 14.864 14.858.006-.022v.022l14.87-14.858 14.865 14.858 14.872-14.858 14.864 14.858.005-.022v.022l14.87-14.858 14.865 14.809 14.877-14.81 14.864 14.859.004-.022v.022l14.873-14.858 14.864 14.858 14.87-14.858 14.865 14.858.006-.022v.022l14.87-14.858 14.865 14.84 14.875-14.84 14.866 14.858.005-.022v.022l6.8-6.795v.002l8.072-8.065 8.068 8.065 6.796 6.793.005-.022v.022l14.87-14.858 14.865 14.84 14.877-14.84 14.864 14.858.006-.022v.022l14.87-14.858 14.865 14.858 14.87-14.858 14.865 14.858.006-.022v.022l14.87-14.858 14.865 14.809 14.877-14.81 14.864 14.859.005-.022v.022l14.872-14.858 14.864 14.858 14.87-14.858 14.865 14.858.006-.022v.022l14.87-14.858 14.865 14.84 14.877-14.84 14.864 14.858.005-.022v.022l6.84-6.835v.042l8.052-8.045 8.048 8.045v-.04l6.836 6.833.005-.022v.022l14.872-14.858 14.864 14.84 14.876-14.84 14.864 14.858.006-.022v.022l14.87-14.858 14.865 14.858 14.872-14.858 14.864 14.858.005-.022v.022l14.87-14.858 14.865 14.809 14.877-14.81 14.864 14.859.006-.022v.022l14.87-14.858 14.865 14.858 14.87-14.858 14.865 14.858.006-.022v.022l14.87-14.858 14.865 14.84 14.877-14.84 14.864 14.858.005-.022v.022l6.8-6.795v.002l8.072-8.065 8.068 8.065 6.796 6.793.005-.022v.022l14.87-14.858 14.865 14.84 14.877-14.84 14.864 14.858.006-.022v.022l14.87-14.858 14.865 14.858 14.87-14.858 14.867 14.858.004-.022v.022l14.87-14.858 14.865 14.809 14.877-14.81 14.864 14.859.005-.022v.022l14.872-14.858 14.864 14.858 14.87-14.858 14.865 14.858.006-.022v.022l14.87-14.858 14.865 14.84 14.877-14.84 14.864 14.858.005-.022v.022l14.872-14.858 7.9 7.897v-5.656l-7.9-7.9z"/></g><g><path fill="#ad953e" d="M1827.176 31.477l-6.496-6.496-6.496 6.496z"/></g><g><path fill="#ad953e" d="M1886.657 31.477l-6.496-6.496-6.496 6.496z"/></g><g><path fill="#ad953e" d="M1678.483 31.477l-6.496-6.496-6.497 6.496z"/></g><g><path fill="#ad953e" d="M1708.218 31.477l-6.496-6.496-6.496 6.496z"/></g><g><path fill="#ad953e" d="M1767.7 31.477l-6.496-6.496-6.496 6.496z"/></g><g><path fill="#ad953e" d="M1737.959 31.477l-6.496-6.496-6.496 6.496z"/></g><g><path fill="#ad953e" d="M1797.44 31.477l-6.496-6.496-6.496 6.496z"/></g></g></svg>