<svg xmlns="http://www.w3.org/2000/svg" xmlns:xlink="http://www.w3.org/1999/xlink" width="1918" height="32"><path fill="#fff" d="M0 31.476h1323.157V.02H0z"/><g fill="#ad953e"><use xlink:href="#B"/><use xlink:href="#C"/><use xlink:href="#C" x="59.478"/><use xlink:href="#C" x="89.218"/><use xlink:href="#C" x="-59.47"/><path d="M191.43 31.477l-6.495-6.496-6.496 6.496zM0 31.476h12.993L6.495 24.98zm42.733.001l-6.496-6.496-6.497 6.496zm89.217 0l-6.497-6.496-6.496 6.496z"/><use xlink:href="#C" x="-118.956"/><use xlink:href="#B" x="-178.434"/><path d="M327.137 31.477H340.13l-6.496-6.496-6.495 6.496z"/><use xlink:href="#C" x="148.7"/><use xlink:href="#C" x="178.44"/><use xlink:href="#C" x="386.616"/><use xlink:href="#C" x="356.875"/><use xlink:href="#C" x="416.357"/><use xlink:href="#C" x="208.182"/><use xlink:href="#C" x="237.918"/><use xlink:href="#C" x="297.4"/><use xlink:href="#C" x="267.658"/><use xlink:href="#C" x="327.13"/><use xlink:href="#C" x="684.053"/><use xlink:href="#C" x="654.318"/><use xlink:href="#D"/><use xlink:href="#C" x="743.535"/><use xlink:href="#C" x="594.836"/><use xlink:href="#B" x="594.839"/><path d="M654.316 31.477h12.992l-6.496-6.496-.02.02-.02-.02-6.497 6.496z"/><use xlink:href="#C" x="475.878"/><use xlink:href="#C" x="565.095"/><path d="M756.53 31.477l-6.497-6.496-6.496 6.496zm-29.73 0l-6.497-6.496-6.496 6.496zm254.654 0h12.992l-6.496-6.496-6.497 6.496z"/><use xlink:href="#B" x="773.279"/><use xlink:href="#C" x="832.757"/><use xlink:href="#D" x="327.138"/><use xlink:href="#C" x="1100.413"/><path d="M21.367 11.798l.002.002v.007zm178.438 0v.01zm59.478 0v.01zm59.48 0l.002.002v.007zm29.743 0l.002.002v.007zm59.48 0l.002.002v.007zm59.478 0l.002.002v.007zm59.48 0l.002.002v.007zm59.478 0l.002.002v.007zm89.263 0l.002.002v.007zm59.48 0l.002.002v.007zm59.478 0l.002.002v.007zm446.095 0l.002.002v.007zM0 .5v8.57l6.498-6.492 14.864 14.86.005-.023v.023l14.87-14.86L51.103 17.43 65.98 2.588l14.864 14.86.006-.023v.023l14.87-14.86 14.866 14.86 14.87-14.86 14.865 14.86.006-.023v.023l14.87-14.86 14.865 14.8 14.877-14.8 14.864 14.86.004-.023v.023l14.87-14.86 14.867 14.86 14.87-14.86 14.865 14.86.006-.023v.023l14.87-14.86L289.02 17.43l14.875-14.842 14.866 14.86.003-.023v.023L333.635 2.6 348.5 17.448l.006-.023v.023l14.87-14.86L378.24 17.43l14.877-14.842 14.864 14.86.004-.023v.023l14.873-14.86 14.864 14.86 14.87-14.86 14.865 14.86.006-.023v.023l14.87-14.86 14.865 14.8 14.877-14.8 14.864 14.86.003-.023v.023l14.872-14.86 14.866 14.86 14.87-14.86 14.865 14.86.005-.023v.023l14.872-14.86 14.864 14.842 14.877-14.842 14.864 14.86.005-.023v.023l6.84-6.835v.042l8.052-8.045 8.05 8.046v-.042l6.836 6.834.005-.023v.023l14.87-14.86L705.42 17.43l14.877-14.842 14.864 14.86.004-.023v.023l14.87-14.86 14.867 14.86 14.87-14.86 14.865 14.86.006-.023v.023l14.87-14.86 14.865 14.8 14.877-14.8 14.864 14.86.005-.023v.023l14.872-14.86 14.864 14.86 14.87-14.86 14.865 14.86.005-.023v.023l14.872-14.86 14.864 14.842L958.2 2.588l14.864 14.86.005-.023v.023L987.95 2.6l14.865 14.858.006-.023v.023l14.87-14.86 14.865 14.842 14.877-14.842 14.864 14.86.005-.023v.023l14.872-14.86 14.864 14.86 14.87-14.86 14.867 14.86.004-.023v.023l14.87-14.86 14.865 14.8 14.877-14.8 14.864 14.86.005-.023v.023l14.872-14.86 14.864 14.86 14.87-14.86 14.865 14.86.005-.023v.023l14.872-14.86 14.864 14.842 14.876-14.842 14.865 14.86.005-.023v.023l14.87-14.86 8.07 8.068V.5zm1300.218 25.324l-14.868-14.868-14.873 14.875-14.868-14.875-14.873 14.868-14.867-14.868L1211 25.822l-14.866-14.866-14.873 14.868-14.867-14.868-14.874 14.88-14.867-14.88-14.873 14.87-14.868-14.868-14.87 14.866-14.865-14.866-14.874 14.868-14.867-14.868-14.873 14.875-14.868-14.875-14.873 14.868-14.868-14.868-14.873 14.868-14.868-14.868L943.34 25.83l-14.867-14.875L913.6 25.823l-14.867-14.868-14.87 14.866-14.865-14.866-14.874 14.868-14.867-14.868-14.873 14.88-14.868-14.88-14.873 14.87-14.868-14.868-14.87 14.866-14.865-14.866-14.875 14.868-14.866-14.868-14.875 14.875-14.866-14.875-14.873 14.868-14.868-14.868-.02.02-.02-.02-14.873 14.868-14.868-14.868L616.16 25.83l-14.867-14.875-14.874 14.868-14.867-14.868-14.87 14.866-14.866-14.866-14.875 14.868-14.865-14.868-14.874 14.88-14.867-14.88-14.873 14.87-14.868-14.868-14.87 14.866-14.865-14.866-14.875 14.868-14.866-14.868-14.875 14.875-14.866-14.875-14.873 14.868-14.868-14.868-14.875 14.868-14.866-14.868-14.873 14.875-14.867-14.875-14.873 14.868-14.868-14.868-14.87 14.866-14.865-14.866-14.875 14.868-14.866-14.868-14.875 14.88-14.866-14.88-14.873 14.87-14.868-14.868-14.87 14.866-14.866-14.87-14.872 14.868L65.98 10.956 51.108 25.83 36.24 10.956 21.367 25.824 6.5 10.956 0 17.454v5.65l6.5-6.5 14.864 14.858.005-.022v.022l14.87-14.858 14.865 14.84 14.877-14.84 14.864 14.858.006-.022v.022l14.87-14.858 14.866 14.858 14.87-14.858 14.865 14.858.006-.022v.022l14.87-14.858 14.865 14.8 14.877-14.8 14.863 14.86.004-.022v.022l14.87-14.858 14.867 14.858 14.87-14.858 14.865 14.858.006-.022v.022l14.87-14.858 14.865 14.84 14.875-14.84 14.866 14.858.003-.022v.022l14.873-14.858L348.5 31.474l.006-.022v.022l14.87-14.858 14.865 14.84 14.877-14.84 14.864 14.858.004-.022v.022l14.873-14.858 14.864 14.858 14.87-14.858 14.865 14.858.006-.022v.022l14.87-14.858 14.865 14.8 14.877-14.8 14.864 14.86.003-.022v.022l14.872-14.858 14.866 14.858 14.87-14.858 14.865 14.858.005-.022v.022l14.872-14.858 14.864 14.84 14.877-14.84L645.9 31.486l.005-.022v.022l6.84-6.835v.042l8.052-8.045 8.05 8.045v-.04l6.836 6.833.005-.022v.022l14.87-14.858 14.865 14.84 14.877-14.84 14.864 14.858.004-.022v.022l14.87-14.858L764.9 31.472l14.87-14.858 14.865 14.858.006-.022v.022l14.87-14.858 14.865 14.8 14.877-14.8 14.864 14.86.005-.022v.022l14.872-14.858 14.864 14.858 14.87-14.858 14.865 14.858.005-.022v.022l14.872-14.858 14.864 14.84 14.877-14.84 14.864 14.858.005-.022v.022l14.87-14.858 14.865 14.858.006-.022v.022l14.87-14.858 14.865 14.84 14.877-14.84 14.864 14.858.005-.022v.022l14.872-14.858 14.864 14.858 14.87-14.858 14.867 14.858.004-.022v.022l14.87-14.858 14.865 14.8 14.877-14.8 14.864 14.86.005-.022v.022l14.872-14.858 14.864 14.858 14.87-14.858 14.865 14.858.005-.022v.022l14.872-14.858 14.864 14.84 14.876-14.84 14.865 14.858.005-.022v.022l14.87-14.858 8.07 8.065v-5.656l-8.067-8.067z"/><use xlink:href="#C" x="1011.19"/><use xlink:href="#C" x="1070.673"/><use xlink:href="#D" x="148.704"/><use xlink:href="#C" x="892.234"/><use xlink:href="#C" x="951.715"/><use xlink:href="#C" x="921.974"/><use xlink:href="#C" x="981.456"/></g><path fill="#fff" d="M593.24 31.476h1324.564V.02H593.24z"/><g fill="#ad953e"><use xlink:href="#C" x="624.552"/><use xlink:href="#D" x="-118.978"/><use xlink:href="#C" x="654.293"/><use xlink:href="#C" x="684.033"/><use xlink:href="#C" x="535.335"/><use xlink:href="#C" x="565.075"/><use xlink:href="#C" x="386.637"/><use xlink:href="#C" x="416.377"/><use xlink:href="#C" x="505.594"/><use xlink:href="#C" x="475.858"/><use xlink:href="#B" x="416.38"/><path d="M921.952 31.477h12.992l-6.496-6.496-6.496 6.496z"/><use xlink:href="#C" x="743.515"/><use xlink:href="#C" x="773.256"/><use xlink:href="#B" x="951.693"/><path d="M1172.86 31.477l-6.496-6.496-6.497 6.496zm59.48 0l-6.495-6.496-6.495 6.496z"/><use xlink:href="#C" x="802.996"/><use xlink:href="#C" x="832.732"/><use xlink:href="#C" x="892.213"/><use xlink:href="#C" x="862.472"/><use xlink:href="#C" x="921.954"/><use xlink:href="#C" x="1278.868"/><use xlink:href="#C" x="1249.132"/><use xlink:href="#D" x="594.816"/><path d="M1559.52 31.477l-6.497-6.496-6.496 6.496zm-148.7 0l-6.495-6.496-6.496 6.496zm29.74 0l-6.494-6.496-6.497 6.496zm-191.43 0h12.993l-6.495-6.496-.02.02-.02-.02-6.496 6.496z"/><use xlink:href="#C" x="1070.693"/><use xlink:href="#C" x="1159.91"/><use xlink:href="#C" x="1130.174"/><use xlink:href="#C" x="1100.434"/><path d="M1576.27 31.477h12.992l-6.497-6.496-6.496 6.496zm42.73 0l-6.494-6.496-6.497 6.496z"/><use xlink:href="#C" x="1427.572"/><use xlink:href="#D" x="921.952"/><use xlink:href="#C" x="1695.228"/><path d="M616.18 11.798l.003.002v.007zm118.96 0v.01zm59.48 0v.01zm59.478 0v.01zm89.222 0v.01zm118.958 0v.01zm59.48 0l.003.002v.007zm59.477 0l.002.002v.007zm59.482 0l.002.002v.007zm29.78 0l.003.002v.007zm118.96 0l.002.002v.007zm118.957 0l.002.002v.007zm59.482 0l.002.002v.007zm29.74 0l.003.002v.007zm118.96 0v.01zm118.957 0l.002.002v.007zm59.482 0l.002.002v.007zM593.24.5v10.145l8.073-8.067 14.864 14.86.005-.023v.023l14.87-14.86 14.865 14.842 14.877-14.842 14.864 14.86.006-.023v.023l14.87-14.86 14.865 14.86 14.87-14.86 14.865 14.86.006-.023v.023L750 2.578l14.865 14.8 14.877-14.8 14.864 14.86.004-.023v.023l14.873-14.86 14.864 14.86 14.87-14.86 14.865 14.86.006-.023v.023l14.87-14.86 14.865 14.842 14.875-14.842 14.866 14.86.005-.023v.023L928.448 2.6l14.865 14.858.006-.023v.023l14.87-14.86 14.865 14.842L987.93 2.588l14.864 14.86.006-.023v.023l14.87-14.86 14.865 14.86 14.87-14.86 14.865 14.86.006-.023v.023l14.87-14.86 14.865 14.8 14.877-14.8 14.864 14.86.005-.023v.023l14.872-14.86 14.864 14.86 14.87-14.86 14.865 14.86.005-.023v.023l14.872-14.86 14.864 14.842 14.877-14.842 14.864 14.86.005-.023v.023l6.84-6.835v.042l8.05-8.045 8.05 8.046v-.042l6.836 6.834.005-.023v.023l14.87-14.86 14.865 14.842 14.877-14.842 14.864 14.86.006-.023v.023l14.87-14.86 14.865 14.86 14.87-14.86 14.865 14.86.006-.023v.023l14.87-14.86 14.865 14.8 14.877-14.8 14.864 14.86.005-.023v.023l14.872-14.86 14.864 14.86 14.87-14.86 14.865 14.86.005-.023v.023l14.872-14.86 14.864 14.842 14.877-14.842 14.864 14.86.005-.023v.023l14.87-14.858 14.865 14.858.006-.023v.023l14.87-14.86 14.865 14.842 14.877-14.842 14.864 14.86.006-.023v.023l14.87-14.86 14.865 14.86 14.87-14.86 14.867 14.86.004-.023v.023l14.87-14.86 14.865 14.8 14.877-14.8 14.864 14.86.005-.023v.023l14.872-14.86 14.864 14.86 14.87-14.86 14.865 14.86.005-.023v.023l14.872-14.86 14.864 14.842 14.876-14.842 14.865 14.86.005-.023v.023l14.87-14.86 7.902 7.9V.5zm1301.794 25.324v.007l-.002-.007-14.868-14.868-14.873 14.875-14.867-14.875-14.873 14.868-14.866-14.868-14.872 14.866-14.865-14.866-14.874 14.868-14.867-14.868-14.873 14.88-14.868-14.88-14.873 14.87-14.868-14.868-14.87 14.866L1672 10.956l-14.873 14.868-14.868-14.868-14.873 14.875-14.868-14.875-14.873 14.868-14.868-14.868-14.873 14.868-14.867-14.868-14.873 14.875-14.868-14.875-14.873 14.868-14.868-14.868-14.87 14.866-14.865-14.866-14.873 14.868-14.868-14.868-14.873 14.88-14.868-14.88-14.873 14.87-14.868-14.868-14.87 14.866-14.865-14.866-14.873 14.868-14.868-14.868-14.875 14.875-14.866-14.875-14.873 14.868-14.867-14.868-.02.02-.02-.02-14.873 14.868-14.867-14.868-14.874 14.875-14.867-14.875-14.873 14.868-14.868-14.868-14.87 14.866-14.865-14.866-14.874 14.868-14.867-14.868-14.873 14.88-14.868-14.88-14.873 14.87-14.868-14.868-14.87 14.866-14.865-14.866-14.873 14.868-14.868-14.868-14.884 14.87-14.868-14.875-14.873 14.868-14.868-14.868-14.873 14.868-14.867-14.868-14.873 14.875-14.868-14.875-14.873 14.868-14.868-14.868-14.87 14.866-14.865-14.866-14.875 14.868-14.866-14.868-14.873 14.88-14.868-14.88-14.873 14.87-14.868-14.868L705.4 25.82l-14.865-14.866-14.873 14.868-14.868-14.868L645.92 25.83l-14.867-14.875-14.874 14.868-14.867-14.868-8.074 8.073v5.65l8.072-8.065 14.864 14.858.005-.022v.022l14.872-14.858 14.864 14.84 14.876-14.84 14.864 14.858.006-.022v.022l14.87-14.858 14.865 14.858 14.872-14.858 14.864 14.858.005-.022v.022l14.87-14.858 14.865 14.8 14.877-14.8 14.864 14.86.004-.022v.022l14.873-14.858 14.864 14.858 14.87-14.858L854.1 31.47l.006-.022v.022l14.87-14.858 14.865 14.84 14.875-14.84 14.866 14.858.005-.022v.022l14.872-14.858 14.864 14.858.005-.022v.022l14.87-14.858 14.865 14.84 14.877-14.84 14.864 14.858.006-.022v.022l14.87-14.858 14.865 14.858 14.87-14.858 14.865 14.858.006-.022v.022l14.87-14.858 14.865 14.8 14.877-14.8 14.864 14.86.005-.022v.022l14.872-14.858 14.864 14.858 14.87-14.858 14.865 14.858.006-.022v.022l14.87-14.858 14.865 14.84 14.877-14.84 14.864 14.858.005-.022v.022l6.84-6.835v.042l8.052-8.045 8.048 8.045v-.04l6.836 6.833.005-.022v.022l14.872-14.858 14.864 14.84 14.876-14.84 14.864 14.858.006-.022v.022l14.87-14.858 14.865 14.858 14.872-14.858 14.864 14.858.005-.022v.022l14.87-14.858 14.865 14.8 14.877-14.8 14.864 14.86.006-.022v.022l14.87-14.858 14.865 14.858 14.87-14.858 14.865 14.858.006-.022v.022l14.87-14.858 14.865 14.84 14.877-14.84 14.864 14.858.005-.022v.022l14.872-14.858 14.864 14.858.005-.022v.022l14.87-14.858 14.865 14.84 14.877-14.84 14.864 14.858.006-.022v.022l14.87-14.858 14.865 14.858 14.87-14.858 14.867 14.858.004-.022v.022l14.87-14.858 14.865 14.8 14.877-14.8 14.864 14.86.005-.022v.022l14.872-14.858L1805.8 31.47l14.87-14.858 14.865 14.858.006-.022v.022l14.87-14.858 14.865 14.84 14.877-14.84 14.864 14.858.005-.022v.022l14.872-14.858 7.9 7.897v-5.656l-7.9-7.9z"/><use xlink:href="#C" x="1606.006"/><use xlink:href="#C" x="1665.487"/><path d="M1678.483 31.477l-6.496-6.496-6.497 6.496z"/><use xlink:href="#C" x="1487.048"/><use xlink:href="#C" x="1546.53"/><use xlink:href="#C" x="1516.79"/><use xlink:href="#C" x="1576.27"/></g><defs ><path id="B" d="M250.907 31.477l-6.495-6.496-6.497 6.496z"/><path id="C" d="M221.17 31.477l-6.496-6.496-6.496 6.496z"/><path id="D" d="M934.964 31.477l-6.496-6.496-6.495 6.496z"/></defs></svg>