<svg xmlns="http://www.w3.org/2000/svg" viewBox="0 0 220.07 73.98"><defs><style>.class-1,.class-2,.class-3,.class-4,.class-6{fill:none;stroke:#28347b;}.class-1,.class-3{stroke-linejoin:round;}.class-2,.class-4,.class-6{stroke-miterlimit:10;}.class-3{stroke-linecap:round;}.class-3,.class-4{stroke-width:0.6px;}.class-5{fill:#28347b;}.class-6{stroke-width:0.78px;}</style></defs><title>Ativo 2</title><g id="Camada_2" data-name="Camada 2"><g id="Camada_1-2" data-name="Camada 1"><path class="class-1" d="M219.57,34.37l-6-5.87-.21-.09H164.33l-5.09-5-.21-.09H114.29V12.18h1.22l.29-.29V8.79l-.12-.12,0-.09L107.5.5h-.42l-7.41,8H99.5l-.3.29v3.1l.3.29h1.22V23.32H87.34V20.5l-.12-.11,0-.09L78.5,11.69l-.2-.09H9.54l-.2.09L.58,20.3l0,.09L.5,20.5v3.11l.29.29h3V70.83l.29.29H58.23v2l.29.29H78.28l.29-.29V70.49H91v2.7l.3.29h20.9l.3-.29v-2.7h11.26v2.68l.29.29H162.7l.29-.29V68.3h53.46l.29-.29V38H219l.29-.29V34.85h.12Z"/><line class="class-2" x1="87.26" y1="20.31" x2="0.61" y2="20.31"/><line class="class-2" x1="87.26" y1="23.33" x2="0.61" y2="23.33"/><line class="class-2" x1="114.13" y1="23.33" x2="100.85" y2="23.33"/><polyline class="class-3" points="63.34 23.33 54.48 32.06 167.7 32.06 163.31 27.69"/><line class="class-2" x1="114.13" y1="12.18" x2="100.85" y2="12.18"/><line class="class-4" x1="116.08" y1="8.81" x2="99.38" y2="8.81"/><rect class="class-4" x="105.51" y="15.14" width="4" height="5.08"/><rect class="class-5" x="106.36" y="15.98" width="2.29" height="3.4"/><polyline class="class-3" points="167.71 32.06 167.71 35.39 54.48 35.39 54.48 32.06"/><line class="class-3" x1="167.7" y1="34.58" x2="218.96" y2="34.58"/><line class="class-3" x1="162.96" y1="37.8" x2="217.01" y2="37.8"/><line class="class-3" x1="162.77" y1="35.39" x2="162.77" y2="68.27"/><line class="class-3" x1="143" y1="35.39" x2="143" y2="73.51"/><line class="class-3" x1="123.95" y1="35.39" x2="123.95" y2="73.51"/><line class="class-3" x1="78.21" y1="35.39" x2="78.21" y2="73.51"/><line class="class-3" x1="58.5" y1="35.39" x2="58.5" y2="73.51"/><line class="class-3" x1="114.13" y1="70.32" x2="89.6" y2="70.32"/><polyline class="class-3" points="110.47 70.32 110.47 67.23 93.03 67.23 93.03 70.32"/><polyline class="class-3" points="107.65 67.3 107.65 64.2 95.86 64.2 95.86 67.3"/><line class="class-3" x1="123.92" y1="64.2" x2="78.28" y2="64.2"/><polyline class="class-4" points="78.21 57.19 92.31 57.19 92.31 64.2"/><rect class="class-4" x="81.99" y="49.38" width="8.1" height="14.82"/><line class="class-4" x1="91.24" y1="57.19" x2="91.24" y2="64.2"/><line class="class-4" x1="88.74" y1="57.19" x2="88.74" y2="64.2"/><line class="class-4" x1="87.38" y1="57.19" x2="87.38" y2="64.2"/><line class="class-4" x1="86.01" y1="57.19" x2="86.01" y2="64.2"/><line class="class-4" x1="84.64" y1="57.19" x2="84.64" y2="64.2"/><line class="class-4" x1="83.27" y1="57.19" x2="83.27" y2="64.2"/><line class="class-4" x1="80.68" y1="57.19" x2="80.68" y2="64.2"/><polyline class="class-4" points="123.86 57.19 109.76 57.19 109.76 64.2"/><rect class="class-4" x="111.99" y="49.37" width="8.1" height="14.82"/><line class="class-4" x1="110.84" y1="57.19" x2="110.84" y2="64.2"/><line class="class-4" x1="113.33" y1="57.19" x2="113.33" y2="64.2"/><line class="class-4" x1="114.7" y1="57.19" x2="114.7" y2="64.2"/><line class="class-4" x1="116.06" y1="57.19" x2="116.06" y2="64.2"/><line class="class-4" x1="117.43" y1="57.19" x2="117.43" y2="64.2"/><line class="class-4" x1="118.8" y1="57.19" x2="118.8" y2="64.2"/><line class="class-4" x1="121.39" y1="57.19" x2="121.39" y2="64.2"/><line class="class-4" x1="122.66" y1="57.19" x2="122.66" y2="64.2"/><line class="class-4" x1="79.51" y1="57.19" x2="79.51" y2="64.2"/><rect class="class-5" x="82.83" y="50.15" width="6.37" height="7.05"/><rect class="class-5" x="112.83" y="50.15" width="6.37" height="7.05"/><rect class="class-4" x="114.26" y="37.19" width="4" height="2.97"/><rect class="class-5" x="115.12" y="38.02" width="2.29" height="1.29"/><rect class="class-4" x="133.84" y="37.19" width="4" height="2.97"/><rect class="class-5" x="134.7" y="38.02" width="2.29" height="1.29"/><rect class="class-4" x="133.84" y="47.95" width="4" height="7.34"/><rect class="class-5" x="134.7" y="48.8" width="2.29" height="5.66"/><rect class="class-4" x="150.15" y="51.92" width="5.66" height="8.55"/><rect class="class-5" x="151.01" y="52.75" width="3.95" height="6.86"/><rect class="class-4" x="168.58" y="39.81" width="5.66" height="8.55"/><rect class="class-5" x="169.44" y="40.64" width="3.95" height="6.86"/><rect class="class-4" x="204.99" y="39.8" width="5.66" height="8.55"/><rect class="class-5" x="205.85" y="40.65" width="3.95" height="6.86"/><rect class="class-4" x="188.03" y="39.81" width="5.66" height="4.94"/><rect class="class-5" x="188.89" y="40.64" width="3.95" height="3.26"/><rect class="class-4" x="180.21" y="53.81" width="5.66" height="5.9"/><rect class="class-5" x="181.06" y="54.66" width="3.95" height="4.22"/><rect class="class-4" x="168.48" y="54.16" width="5.66" height="11.86"/><rect class="class-5" x="169.34" y="55.01" width="3.95" height="10.18"/><rect class="class-4" x="65.93" y="37.19" width="4" height="2.97"/><rect class="class-5" x="66.79" y="38.02" width="2.29" height="1.29"/><rect class="class-4" x="65.93" y="47.95" width="4" height="7.34"/><rect class="class-5" x="66.79" y="48.8" width="2.29" height="5.66"/><rect class="class-4" x="12.02" y="48.44" width="5.95" height="6.72"/><rect class="class-5" x="12.87" y="49.27" width="4.24" height="5.04"/><rect class="class-4" x="43.05" y="48.43" width="8.69" height="7.34"/><rect class="class-5" x="43.91" y="49.28" width="6.98" height="5.66"/><rect class="class-4" x="43.05" y="30.73" width="8.69" height="6.53"/><rect class="class-5" x="43.91" y="31.57" width="6.98" height="4.84"/><rect class="class-4" x="28.29" y="30.73" width="6" height="6.53"/><rect class="class-5" x="29.15" y="31.58" width="4.29" height="4.84"/><rect class="class-4" x="28.29" y="48.36" width="6" height="9.41"/><rect class="class-5" x="29.14" y="49.21" width="4.29" height="7.73"/><rect class="class-4" x="11.99" y="30.73" width="6" height="9.79"/><rect class="class-5" x="12.85" y="31.57" width="4.29" height="8.11"/><rect class="class-4" x="84.04" y="37.19" width="4" height="2.97"/><rect class="class-5" x="84.9" y="38.02" width="2.29" height="1.29"/><rect class="class-4" x="94.35" y="49.62" width="13.92" height="7.15"/><rect class="class-5" x="95.21" y="50.46" width="12.21" height="5.47"/><polyline class="class-6" points="176.13 68.31 176.13 66.03 166.38 66.03 166.38 68.31"/><rect class="class-4" x="205.03" y="54.16" width="5.66" height="11.86"/><rect class="class-5" x="205.89" y="55.01" width="3.95" height="10.18"/><polyline class="class-6" points="212.7 68.31 212.7 66.03 202.94 66.03 202.94 68.31"/></g></g></svg>