<svg xmlns="http://www.w3.org/2000/svg" viewBox="0 0 445.86 293.51"><style><![CDATA[.G{stroke-width:2.29}.H{stroke-miterlimit:10}.I{fill:none}.J{stroke:#f7f9fd}.K{fill:#f7f9fd}.L{stroke-width:3.82}.M{stroke-linejoin:round}.N{stroke-linecap:round}]]></style><path d="M443.95 140.4l-.02-12.1-33.6-35.47-.8-.34-171.94.26V48.4h4.78l1.14-1.14V34.9l-.47-.47.14-.34L211 1.95l-1.65.04-29 31.78h-.68l-1.14 1.14v12.36l1.14 1.14h4.78v44.35h-52.34v-.8l-95.63.55-34.6 34.64v13.26l16.6-1.57v152.63l.8.8h77.3l1.14-1.15v-10.66h48.74v10.73l1.14 1.14h81.8l1.15-1.14v-10.73h44.06v10.66l1.14 1.15H350l75.43-1.15V140.68l18.5-.28z" fill="#222f5f"/><g class="I J"><path d="M234.76 92.5h-51.84" class="H L"/><path d="M36.5 92.5L1.9 127.14h442.02l-17.17-17.32" class="G M N"/><g class="H"><path d="M234.76 48.24h-51.84" class="L"/><path d="M242.4 34.9h-65.2m23.9 25.08h15.6v20.2h-15.6z" class="G"/></g></g><path d="M204.44 63.33h8.94v13.5h-8.94z" class="K"/><g class="I J G"><g class="M N"><path d="M443.95 127.14v13.26H1.9v-13.26m422.76 13.26v130.5m-77.18-130.5v151.3m-74.36-151.3v151.3"/><path d="M94.54 140.4v151.3M17.62 140.4v151.3m217.14-12.66h-95.72m81.44 0v-12.28H152.4v12.28"/><path d="M209.46 267.02v-12.28h-46v12.28"/><path d="M273 254.74H94.82"/></g><g class="H"><path d="M94.54 226.95h55.08v27.8"/><path d="M109.3 195.9h31.63v58.84H109.3zm36.12 31.05v27.8"/><path d="M135.7 226.95v27.8m-5.35-27.8v27.8m-5.35-27.8v27.8m-5.33-27.8v27.8m-5.35-27.8v27.8m-10.12-27.8v27.8m168.6-27.8h-55.1v27.8"/><path d="M258.03 254.74H226.4V195.9h31.63zm-36.13-27.8v27.8"/><path d="M231.64 226.95v27.8m5.34-27.8v27.8m5.34-27.8v27.8m5.34-27.8v27.8m5.34-27.8v27.8m10.12-27.8v27.8m4.95-27.8v27.8m-168.44-27.8v27.8"/></g></g><path d="M112.6 198.97h24.9v27.98h-24.9zm117.1 0h24.9v27.98h-24.9z" class="K"/><path d="M235.3 159.3V147.5h15.62v11.78z" class="G H I J"/><path d="M238.66 155.96v-5.12h8.92v5.12z" class="K"/><path d="M311.74 159.3V147.5h15.62v11.78z" class="G H I J"/><path d="M315.1 155.96v-5.12H324v5.12z" class="K"/><path d="M311.74 219.4v-29.14h15.62v29.14z" class="G H I J"/><path d="M315.08 216.07V193.6H324v22.48z" class="K"/><path d="M375.4 239.9v-33.9h22.1v33.9z" class="G H I J"/><path d="M378.74 236.56V209.3h15.4v27.25z" class="K"/><path d="M46.62 159.3V147.5h15.62v11.78z" class="G H I J"/><path d="M49.97 155.96v-5.12h8.92v5.12z" class="K"/><path d="M46.62 219.4v-29.14h15.62v29.14z" class="G H I J"/><path d="M49.96 216.07V193.6h8.92v22.48z" class="K"/><g class="I J"><path d="M1.9 127.14v13.26H16.5v150l1.14 1.14h77.1l1.14-1.14v-10.65h48.63v10.7l1.14 1.14h81.62l1.14-1.14v-10.7h44v10.64l1.14 1.14h150.74l1.14-1.14v-19.34l-.76-130.65H444v-13.26l-33.07-34.3-.8-.34H235.4V48.26h4.77l1.14-1.14V34.8l-.47-.47.17-.32-32.1-32.1h-1.65L178.3 33.6h-.67l-1.14 1.14v12.37l1.14 1.14h4.77V92.5H36.5z" class="L M"/><path d="M117.32 159.3v-11.78h15.62v11.78z" class="G H"/></g><path d="M120.67 155.97v-5.12h8.92v5.12z" class="K"/><path d="M157.55 225.25v-28.38h54.35v28.38z" class="G H I J"/><path d="M160.9 221.92V200.2h47.65v21.72z" class="K"/></svg>