<svg xmlns="http://www.w3.org/2000/svg" viewBox="0 0 853.51 293.51"><style><![CDATA[.B{stroke-width:2.289}.C{stroke-miterlimit:10}.D{fill:none}.E{stroke:#f7f9fc}.F{fill:#f7f9fc}.G{stroke-linejoin:round}.H{stroke-width:3.816}.I{stroke-linecap:round}.J{stroke-width:2.989}]]></style><path d="M830.15 113.36l-.8-.33H637.8l11.67 12.9.28 13.76H632.4v132.05h208.76l1.14-1.14V151.03h8.78l1.14-1.14v-11.22h.47l.8-1.95-23.36-23.36z" fill="#3f55a1"/><g class="D E B"><path d="M649 137.16h200.07m-218.6 12.78h210.95" class="G I"/><path d="M652.37 191.82v-33.9h22.1v33.9z" class="C"/></g><path d="M655.72 188.5v-27.25h15.4v27.25z" class="F"/><path d="M794.5 191.82v-33.9h22.1v33.9z" class="B C D E"/><path d="M797.86 188.5v-27.25h15.4v27.25z" class="F"/><path d="M728.32 177.5v-19.6h22.1v19.6z" class="B C D E"/><path d="M731.67 174.18v-12.94h15.4v12.94z" class="F"/><path d="M697.78 236.93V213.5h22.1v23.42z" class="B C D E"/><path d="M701.13 233.6v-16.76h15.4v16.76z" class="F"/><path d="M652 262V214.9h22.1V262z" class="B C D E"/><path d="M655.34 258.66v-40.42h15.4v40.42z" class="F"/><g class="C D E"><path d="M681.88 271.06V262h-38.06v9.07" class="J"/><path d="M794.7 262V214.9h22.1V262z" class="B"/></g><path d="M798.06 258.66v-40.42h15.4v40.42z" class="F"/><g class="D E"><path d="M824.6 271.06V262h-38.06v9.07" class="C J"/><path d="M649 127.14v13.26h-18.52v130.65h208.65l1.14-1.14V150.64H849l1.14-1.14v-11.2h.47l.8-1.95-23.3-23.3-.8-.34h-191.5z" class="G H"/></g><path d="M228.14 293.46V140.83h-18.42l.33-14.86 32.03-32.02h99.68v-10.4l-.47-.48.14-.33-34.27-34.28-.8-.33H37.32l-.8.33L2.24 82.74l.14.33-.47.48V95.9l1.14 1.14H14.6v186.78l1.14 1.14H227.8v8.14l.35.35z" fill="#28347b"/><g class="D E"><g class="H"><path d="M341 94.5V83.3l-.47-.47.14-.33-34.23-34.2-.8-.34H37.24l-.8.34-34.2 34.2.14.33-.47.47v12.34l1.14 1.14h11.5v186.33l1.14 1.14h211.56" class="G"/><path d="M340.63 82.5H2.38m338.25 12H2.38" class="C"/></g><path d="M46.92 220.83v-26.66h23.25v26.66z" class="B C"/></g><path d="M50.27 217.5v-20h16.55v20z" class="F"/><path d="M168.07 223.3v-29.14H202v29.14z" class="B C D E"/><path d="M171.4 219.98V197.5h27.23v22.48z" class="F"/><path d="M168.06 149.8v-25.9H202v25.9z" class="B C D E"/><path d="M171.4 146.46v-19.24h27.23v19.24z" class="F"/><path d="M110.45 149.8v-25.9h23.44v25.9z" class="B C D E"/><path d="M113.8 146.46v-19.24h16.74v19.24z" class="F"/><path d="M110.45 231.23v-37.35h23.44v37.35z" class="B C D E"/><path d="M113.8 227.9v-30.7h16.74v30.7z" class="F"/><path d="M46.83 162.77V123.9h23.44v38.87z" class="B C D E"/><path d="M50.18 159.44v-32.2h16.74v32.2z" class="F"/><path d="M651.6 140.4l-.02-12.1-33.6-35.47-.8-.34-171.95.26V48.4H450l1.14-1.14V34.9l-.47-.47.14-.34-32.15-32.15L417 2l-29 31.78h-.67l-1.15 1.14v12.36l1.15 1.14h4.78v44.35h-52.35v-.8l-95.63.55-34.6 34.64v13.26l16.6-1.57v152.63l.8.8h77.3l1.14-1.15v-10.66h48.74v10.73l1.14 1.14h81.82l1.14-1.14v-10.73h44.06v10.66l1.15 1.15h74.24l75.43-1.15V140.68l18.5-.28z" fill="#232f60"/><g class="D E"><path d="M442.4 92.5h-51.84" class="C H"/><path d="M244.13 92.5l-34.6 34.64h442.03l-17.18-17.32" class="B G I"/><g class="C"><path d="M442.4 48.24h-51.84" class="H"/><path d="M450.02 34.9h-65.2m23.93 25.08h15.6v20.2h-15.6z" class="B"/></g></g><path d="M412.08 63.33h8.94v13.5h-8.94z" class="F"/><g class="D E B"><g class="G I"><path d="M651.6 127.14v13.26H209.54v-13.26M632.3 140.4v130.5m-77.18-130.5v151.3m-74.37-151.3v151.3"/><path d="M302.18 140.4v151.3m-76.92-151.3v151.3m217.14-12.66h-95.72m81.42 0v-12.28h-68.07v12.28"/><path d="M417.1 267.02v-12.28h-46v12.28"/><path d="M480.64 254.74H302.46"/></g><g class="C"><path d="M302.18 226.95h55.07v27.8"/><path d="M316.94 195.9h31.63v58.84h-31.63zm36.12 31.05v27.8"/><path d="M343.32 226.95v27.8m-5.34-27.8v27.8m-5.34-27.8v27.8m-5.34-27.8v27.8m-5.34-27.8v27.8m-10.12-27.8v27.8m168.58-27.8h-55.08v27.8"/><path d="M465.65 254.74h-31.63V195.9h31.63zm-36.1-27.8v27.8"/><path d="M439.27 226.95v27.8m5.33-27.8v27.8m5.35-27.8v27.8m5.35-27.8v27.8m5.34-27.8v27.8m10.1-27.8v27.8m4.95-27.8v27.8m-168.43-27.8v27.8"/></g></g><path d="M320.23 198.97h24.9v27.98h-24.9zm117.1 0h24.9v27.98h-24.9z" class="F"/><path d="M442.94 159.3v-11.78h15.62v11.78z" class="B C D E"/><path d="M446.3 155.97v-5.12h8.92v5.12z" class="F"/><path d="M519.37 159.3v-11.78H535v11.78z" class="B C D E"/><path d="M522.72 155.97v-5.12h8.92v5.12z" class="F"/><path d="M519.38 219.4v-29.14H535v29.14z" class="B C D E"/><path d="M522.72 216.07V193.6h8.92v22.48z" class="F"/><path d="M583.02 239.9v-33.9h22.1v33.9z" class="B C D E"/><path d="M586.37 236.56V209.3h15.4v27.25z" class="F"/><path d="M254.25 159.3v-11.78h15.62v11.78z" class="B C D E"/><path d="M257.6 155.97v-5.12h8.92v5.12z" class="F"/><path d="M254.26 219.4v-29.14h15.62v29.14z" class="B C D E"/><path d="M257.6 216.07V193.6h8.92v22.48z" class="F"/><g class="D E"><path d="M209.54 127.14v13.26h14.58v150l1.14 1.14h77.1l1.14-1.14v-10.65h48.63v10.7l1.14 1.14h81.62l1.14-1.14v-10.7h44v10.64l1.14 1.14h150.75l1.14-1.14v-19.34l-.77-130.65h19.3v-13.26l-33.08-34.3-.8-.34H443V48.26h4.76l1.14-1.14V34.8l-.47-.47.14-.33L416.52 1.9h-1.65L386 33.65h-.67l-1.14 1.14v12.33l1.14 1.14h4.77V92.5H244.13z" class="G H"/><path d="M324.96 159.3v-11.78h15.62v11.78z" class="B C"/></g><path d="M328.3 155.97v-5.12h8.92v5.12z" class="F"/><path d="M365.18 225.25v-28.38h54.35v28.38z" class="B C D E"/><path d="M368.53 221.92V200.2h47.65v21.72z" class="F"/></svg>