<svg xmlns="http://www.w3.org/2000/svg" viewBox="0 0 128.15 43.41"><defs><style>.cls-1{fill:#28347b;}</style></defs><title>Ativo 1</title><g id="Camada_2" data-name="Camada 2"><g id="Camada_1-2" data-name="Camada 1"><path class="cls-1" d="M38.1,32.78h2.7V28.05H38.1Zm.34-4.39h2v4h-2Z"/><rect class="cls-1" x="38.78" y="22.35" width="1.34" height="0.73"/><path class="cls-1" d="M38.1,23.76h2.7V21.67H38.1ZM38.44,22h2v1.42h-2Z"/><rect class="cls-1" x="25.42" y="18.52" width="4.04" height="2.82"/><path class="cls-1" d="M24.74,22h5.41V17.84H24.74Zm.34-3.84h4.73v3.5H25.08Z"/><rect class="cls-1" x="61.93" y="9.2" width="1.34" height="2.02"/><path class="cls-1" d="M61.25,11.9H64V8.52h-2.7Zm.34-3h2v2.7h-2Z"/><path class="cls-1" d="M63.19,29.1H54.72v4.54h8.47Zm-.34,4.2H55.06V29.44h7.79Z"/><path class="cls-1" d="M24.74,33.05h5.41V28.31H24.74Zm.34-4.4h4.73v4.06H25.08Z"/><rect class="cls-1" x="55.4" y="29.78" width="7.11" height="3.18"/><rect class="cls-1" x="38.78" y="28.73" width="1.34" height="3.36"/><path class="cls-1" d="M6.56,32.69h3.86V28.31H6.56Zm.34-4h3.18v3.7H6.9Z"/><path class="cls-1" d="M51.4,21.67H48.7v2.09h2.7Zm-.34,1.75H49V22h2Z"/><rect class="cls-1" x="7.24" y="28.99" width="2.5" height="3.02"/><rect class="cls-1" x="49.38" y="22.35" width="1.34" height="0.73"/><rect class="cls-1" x="67.05" y="22.35" width="1.34" height="0.73"/><path class="cls-1" d="M69.08,21.67H66.37v2.09h2.71Zm-.34,1.75h-2V22h2Z"/><rect class="cls-1" x="25.42" y="28.99" width="4.04" height="3.38"/><rect class="cls-1" x="16.76" y="18.52" width="2.5" height="2.82"/><rect class="cls-1" x="7.24" y="18.52" width="2.5" height="4.76"/><path class="cls-1" d="M16.08,22h3.86V17.84H16.08Zm.34-3.84H19.6v3.5H16.42Z"/><path class="cls-1" d="M16.08,34.22h3.86V28.31H16.08Zm.34-5.57H19.6v5.23H16.42Z"/><path class="cls-1" d="M6.56,24h3.86V17.84H6.56Zm.34-5.78h3.18v5.44H6.9Z"/><rect class="cls-1" x="16.76" y="28.99" width="2.5" height="4.55"/><rect class="cls-1" x="88.06" y="31.1" width="2.28" height="4.04"/><path class="cls-1" d="M101.8,23.22H98.16v5.4h3.64Zm-.33,5.06h-3V23.55h3Z"/><path class="cls-1" d="M108.63,31.57H105v3.82h3.64Zm-.34,3.49h-3V31.9h3Z"/><rect class="cls-1" x="105.67" y="32.25" width="2.28" height="2.47"/><rect class="cls-1" x="98.84" y="23.9" width="2.28" height="4.04"/><rect class="cls-1" x="98.74" y="32.42" width="2.28" height="6.05"/><path class="cls-1" d="M123.1,23.22h-3.64v5.4h3.64Zm-.33,5.06h-3V23.55h3Z"/><rect class="cls-1" x="120.14" y="23.9" width="2.28" height="4.04"/><path class="cls-1" d="M87.38,35.82H91V30.41H87.38Zm.34-5.07h3v4.73h-3Z"/><rect class="cls-1" x="120.14" y="32.42" width="2.28" height="6.05"/><rect class="cls-1" x="110.22" y="23.9" width="2.28" height="1.92"/><path class="cls-1" d="M113.18,23.22h-3.64V26.5h3.64Zm-.33,2.94h-3V23.55h3Z"/><rect class="cls-1" x="78.51" y="22.35" width="1.34" height="0.73"/><path class="cls-1" d="M77.83,23.76h2.7V21.67h-2.7ZM78.17,22h2v1.42h-2Z"/><rect class="cls-1" x="78.51" y="28.73" width="1.34" height="3.36"/><path class="cls-1" d="M77.83,32.78h2.7V28.05h-2.7Zm.34-4.39h2v4h-2Z"/><path class="cls-1" d="M128.15,20.15l-3.49-3.49-.12-.05H95.84l-3-3-.12-.05H66.57V7h.71l.17-.17V4.93l-.07-.07,0-.05L62.6,0h-.25L58,4.76h-.1l-.17.17V6.78l.17.17h.71v6.63H50.81V11.9l-.08-.07,0-.05L45.63,6.65l-.12-.05H5.29l-.12.05L.05,11.78l0,.05L0,11.9v1.85l.17.17H1.9V41.84l.17.17h31.7v1.22l.17.17H45.49l.17-.17v-1.6H53v1.61l.17.17H65.35l.17-.17V41.63h6.59v1.6l.17.17H94.93l.17-.17v-2.9h31.21l.17-.17V22.29h1.31l.17-.17V20.44H128ZM124.47,17l3.15,3.15H98V18.82h0l0-.12h0L96.19,17ZM83.38,20.58H31.7V19h66v1.59H83.38ZM64.07,37.74V33.89h.37v3.85Zm.71-3.85h.41v3.85h-.41Zm5.14-.34h-.35v-4h-3.7v4h-.34V29.21h4.39Zm-2.42.34v3.85h-.34V33.89Zm.46,0h.34v3.85H68Zm.79,0h.34v3.85h-.34Zm-2,0v3.85h-.34V33.89Zm2.86,3.85V33.89h.35v3.85Zm-3.7-3.85v3.85h-.34V33.89Zm4.38,0h.41v3.85h-.41Zm.75,0h.36v3.85H71Zm.7,0h.41v3.85H71.7Zm.41-.34H70.25V28.88H65.19v4.67H63.73v4.19H53.88V33.55h-1.3V28.88H47.52v4.67H45.66V20.92H72.11Zm-8,7.74H54.31V39.86h9.85Zm-1.65-1.77H56V38.08h6.55ZM45.66,33.89H46v3.85h-.37Zm.71,0h.37v3.85h-.37Zm.71,0h.44v3.85h-.44Zm5.16-.34H51.9v-4H48.2v4h-.35V29.21h4.39Zm-2.44.34v3.85h-.34V33.89Zm.46,0h.34v3.85h-.34Zm.79,0h.34v3.85h-.34Zm-2,0v3.85h-.34V33.89Zm2.89,3.85V33.89h.34v3.85Zm-3.7-3.85v3.85h-.35V33.89Zm4.38,0h.33v3.85h-.33Zm.67,0h.29v3.85h-.29Zm42.4-17h0l1.76,1.75H31.94l4.74-4.73h56ZM62.48.37l4.39,4.39H58.48ZM58.09,5.1h9V6.6h-9ZM59,7h7.26v6.63H59ZM5.37,7H45.44l4.78,4.78H.58Zm-5,5.12H50.46v1.51H.34Zm1.9,29.6V13.92H36.19L31.41,18.7h0l-.05.12h0v1.93l.17.17h2.24V41.67Zm43.08,1.39H34.11V20.92H45.32V43.06Zm.34-5h10v1.44H54.13l-.17.17v1.6h-8.3Zm19.52,5H53.29V41.63H65.18Zm.17-1.78h-.84v-1.6l-.17-.17H62.85V38.08h9.26v3.21Zm7.1.17V20.92H83.21V43.06H72.45Zm22.31,1.6H83.55V20.92H94.76v1.2h0V43.06ZM97.16,40v-.84h5.44V40Zm4.21-1.18h-3V32.08h3ZM118.56,40v-.84H124V40Zm4.21-1.18h-3V32.08h3ZM126.14,40h-1.8V39l-.17-.17H123.1V31.74h-3.64v7.07h-1.07l-.17.17v1H103V39l-.18-.17h-1.06V31.74H98.06v7.07H97l-.17.17v1H95.1V22.29h31Zm1.48-18H95.1v-1h2.72l.17-.17v-.31h29.63Z"/></g></g></svg>