<svg xmlns="http://www.w3.org/2000/svg" viewBox="0 0 853.51 293.51"><title>Ativo 1</title><g id="Camada_2" data-name="Camada 2"><g id="Camada_1-2" data-name="Camada 1"><polygon points="830.15 113.36 829.34 113.03 637.79 113.03 649.46 125.92 649.74 139.68 632.41 139.68 632.41 271.73 645.04 271.73 683.74 271.73 788.18 271.73 826.88 271.73 841.17 271.73 842.31 270.59 842.31 151.03 851.09 151.03 852.23 149.89 852.23 138.67 852.7 138.67 853.51 136.72 830.15 113.36" style="fill:#3f55a1"/><line x1="648.99" y1="137.16" x2="849.06" y2="137.16" style="fill:none;stroke:#f7f9fc;stroke-linecap:round;stroke-linejoin:round;stroke-width:2.28947726111491px"/><line x1="630.48" y1="149.94" x2="841.43" y2="149.94" style="fill:none;stroke:#f7f9fc;stroke-linecap:round;stroke-linejoin:round;stroke-width:2.28947726111491px"/><rect x="646.47" y="163.81" width="33.91" height="22.1" transform="translate(488.56 838.29) rotate(-90)" style="fill:none;stroke:#f7f9fc;stroke-miterlimit:10;stroke-width:2.28947726111491px"/><rect x="649.8" y="167.16" width="27.25" height="15.41" transform="translate(488.56 838.29) rotate(-90)" style="fill:#f7f9fc"/><rect x="788.61" y="163.81" width="33.91" height="22.1" transform="translate(630.7 980.43) rotate(-90)" style="fill:none;stroke:#f7f9fc;stroke-miterlimit:10;stroke-width:2.28947726111491px"/><rect x="791.94" y="167.16" width="27.25" height="15.41" transform="translate(630.7 980.43) rotate(-90)" style="fill:#f7f9fc"/><rect x="729.57" y="156.66" width="19.6" height="22.1" transform="translate(571.66 907.08) rotate(-90)" style="fill:none;stroke:#f7f9fc;stroke-miterlimit:10;stroke-width:2.28947726111491px"/><rect x="732.9" y="160.01" width="12.94" height="15.41" transform="translate(571.66 907.08) rotate(-90)" style="fill:#f7f9fc"/><rect x="697.12" y="214.17" width="23.42" height="22.1" transform="translate(483.61 934.05) rotate(-90)" style="fill:none;stroke:#f7f9fc;stroke-miterlimit:10;stroke-width:2.28947726111491px"/><rect x="700.45" y="217.52" width="16.76" height="15.41" transform="translate(483.61 934.05) rotate(-90)" style="fill:#f7f9fc"/><rect x="639.5" y="227.4" width="47.08" height="22.1" transform="translate(424.59 901.49) rotate(-90)" style="fill:none;stroke:#f7f9fc;stroke-miterlimit:10;stroke-width:2.28947726111491px"/><rect x="642.83" y="230.75" width="40.42" height="15.41" transform="translate(424.59 901.49) rotate(-90)" style="fill:#f7f9fc"/><polyline points="681.88 271.06 681.88 261.99 643.82 261.99 643.82 271.06" style="fill:none;stroke:#f7f9fc;stroke-miterlimit:10;stroke-width:2.98898641573323px"/><rect x="782.22" y="227.4" width="47.08" height="22.1" transform="translate(567.31 1044.21) rotate(-90)" style="fill:none;stroke:#f7f9fc;stroke-miterlimit:10;stroke-width:2.28947726111491px"/><rect x="785.55" y="230.75" width="40.42" height="15.41" transform="translate(567.31 1044.21) rotate(-90)" style="fill:#f7f9fc"/><polyline points="824.6 271.06 824.6 261.99 786.54 261.99 786.54 271.06" style="fill:none;stroke:#f7f9fc;stroke-miterlimit:10;stroke-width:2.98898641573323px"/><path d="M649,127.14l0,13.26H630.48V271.05H839.13l1.14-1.14V150.64H849l1.14-1.14V138.31h.47l.81-1.95-23.3-23.3-.81-.34H635.82Z" style="fill:none;stroke:#f7f9fc;stroke-linejoin:round;stroke-width:3.81579543519152px"/><polygon points="228.14 293.46 228.14 140.83 209.72 140.83 210.05 125.97 242.08 93.95 341.76 93.95 341.76 83.55 341.29 83.07 341.43 82.74 307.16 48.46 306.35 48.13 37.32 48.13 36.52 48.46 2.24 82.74 2.38 83.07 1.91 83.55 1.91 95.91 3.05 97.05 14.59 97.05 14.59 283.83 15.73 284.97 227.79 284.97 227.79 293.11 228.14 293.46" style="fill:#28347b"/><path d="M341,94.5V83.31l-.47-.47.14-.33L306.44,48.32l-.81-.34H37.24l-.81.34L2.24,82.51l.14.33-.47.47V95.65l1.14,1.14H14.56V283.12l1.14,1.14H227.26" style="fill:none;stroke:#f7f9fc;stroke-linejoin:round;stroke-width:3.81579543519152px"/><line x1="340.63" y1="82.51" x2="2.38" y2="82.51" style="fill:none;stroke:#f7f9fc;stroke-miterlimit:10;stroke-width:3.81579543519152px"/><line x1="340.63" y1="94.5" x2="2.38" y2="94.5" style="fill:none;stroke:#f7f9fc;stroke-miterlimit:10;stroke-width:3.81579543519152px"/><rect x="45.21" y="195.88" width="26.66" height="23.25" transform="translate(-148.96 266.04) rotate(-90)" style="fill:none;stroke:#f7f9fc;stroke-miterlimit:10;stroke-width:2.28947726111491px"/><rect x="48.54" y="199.23" width="20" height="16.55" transform="translate(-148.96 266.04) rotate(-90)" style="fill:#f7f9fc"/><rect x="170.46" y="191.78" width="29.14" height="33.93" transform="translate(-23.71 393.77) rotate(-90)" style="fill:none;stroke:#f7f9fc;stroke-miterlimit:10;stroke-width:2.28947726111491px"/><rect x="173.79" y="195.12" width="22.48" height="27.23" transform="translate(-23.71 393.77) rotate(-90)" style="fill:#f7f9fc"/><rect x="172.08" y="119.87" width="25.9" height="33.93" transform="translate(48.19 321.87) rotate(-90)" style="fill:none;stroke:#f7f9fc;stroke-miterlimit:10;stroke-width:2.28947726111491px"/><rect x="175.41" y="123.22" width="19.24" height="27.23" transform="translate(48.19 321.87) rotate(-90)" style="fill:#f7f9fc"/><rect x="109.22" y="125.12" width="25.9" height="23.44" transform="translate(-14.67 259.01) rotate(-90)" style="fill:none;stroke:#f7f9fc;stroke-miterlimit:10;stroke-width:2.28947726111491px"/><rect x="112.55" y="128.47" width="19.24" height="16.74" transform="translate(-14.67 259.01) rotate(-90)" style="fill:#f7f9fc"/><rect x="103.49" y="200.84" width="37.35" height="23.44" transform="translate(-90.39 334.72) rotate(-90)" style="fill:none;stroke:#f7f9fc;stroke-miterlimit:10;stroke-width:2.28947726111491px"/><rect x="106.82" y="204.19" width="30.69" height="16.74" transform="translate(-90.39 334.72) rotate(-90)" style="fill:#f7f9fc"/><rect x="39.11" y="131.61" width="38.87" height="23.44" transform="translate(-84.78 201.88) rotate(-90)" style="fill:none;stroke:#f7f9fc;stroke-miterlimit:10;stroke-width:2.28947726111491px"/><rect x="42.44" y="134.96" width="32.21" height="16.74" transform="translate(-84.78 201.88) rotate(-90)" style="fill:#f7f9fc"/><polygon points="651.59 140.4 651.57 128.31 617.96 92.84 617.16 92.5 445.21 92.76 445.21 48.41 449.99 48.41 451.13 47.27 451.13 34.91 450.66 34.44 450.8 34.1 418.65 1.95 416.99 1.99 388 33.77 387.33 33.77 386.18 34.91 386.18 47.27 387.33 48.41 392.11 48.41 392.11 92.76 339.76 92.76 339.76 91.95 244.13 92.5 209.54 127.14 209.54 140.4 226.14 138.83 226.14 291.46 226.93 292.26 304.22 292.26 305.36 291.11 305.36 280.45 354.1 280.45 354.1 291.18 355.24 292.32 437.06 292.32 438.2 291.18 438.2 280.45 482.26 280.45 482.26 291.11 483.41 292.26 557.65 292.26 633.08 291.11 633.08 140.68 651.59 140.4" style="fill:#232f60"/><line x1="442.39" y1="92.5" x2="390.55" y2="92.5" style="fill:none;stroke:#f7f9fc;stroke-miterlimit:10;stroke-width:3.81579543519152px"/><polyline points="244.13 92.5 209.54 127.14 651.57 127.14 634.39 109.82" style="fill:none;stroke:#f7f9fc;stroke-linecap:round;stroke-linejoin:round;stroke-width:2.28947726111491px"/><line x1="442.39" y1="48.24" x2="390.55" y2="48.24" style="fill:none;stroke:#f7f9fc;stroke-miterlimit:10;stroke-width:3.81579543519152px"/><line x1="450.02" y1="34.89" x2="384.83" y2="34.89" style="fill:none;stroke:#f7f9fc;stroke-miterlimit:10;stroke-width:2.28947726111491px"/><rect x="408.75" y="59.98" width="15.6" height="20.2" style="fill:none;stroke:#f7f9fc;stroke-miterlimit:10;stroke-width:2.28947726111491px"/><rect x="412.08" y="63.33" width="8.94" height="13.5" style="fill:#f7f9fc"/><polyline points="651.59 127.14 651.59 140.4 209.54 140.4 209.54 127.14" style="fill:none;stroke:#f7f9fc;stroke-linecap:round;stroke-linejoin:round;stroke-width:2.28947726111491px"/><line x1="632.29" y1="140.4" x2="632.29" y2="270.89" style="fill:none;stroke:#f7f9fc;stroke-linecap:round;stroke-linejoin:round;stroke-width:2.28947726111491px"/><line x1="555.12" y1="140.4" x2="555.12" y2="291.69" style="fill:none;stroke:#f7f9fc;stroke-linecap:round;stroke-linejoin:round;stroke-width:2.28947726111491px"/><line x1="480.75" y1="140.4" x2="480.75" y2="291.69" style="fill:none;stroke:#f7f9fc;stroke-linecap:round;stroke-linejoin:round;stroke-width:2.28947726111491px"/><line x1="302.18" y1="140.4" x2="302.18" y2="291.69" style="fill:none;stroke:#f7f9fc;stroke-linecap:round;stroke-linejoin:round;stroke-width:2.28947726111491px"/><line x1="225.26" y1="140.4" x2="225.26" y2="291.69" style="fill:none;stroke:#f7f9fc;stroke-linecap:round;stroke-linejoin:round;stroke-width:2.28947726111491px"/><line x1="442.39" y1="279.04" x2="346.67" y2="279.04" style="fill:none;stroke:#f7f9fc;stroke-linecap:round;stroke-linejoin:round;stroke-width:2.28947726111491px"/><polyline points="428.11 279.04 428.11 266.76 360.04 266.76 360.04 279.04" style="fill:none;stroke:#f7f9fc;stroke-linecap:round;stroke-linejoin:round;stroke-width:2.28947726111491px"/><polyline points="417.09 267.02 417.09 254.74 371.1 254.74 371.1 267.02" style="fill:none;stroke:#f7f9fc;stroke-linecap:round;stroke-linejoin:round;stroke-width:2.28947726111491px"/><line x1="480.64" y1="254.74" x2="302.46" y2="254.74" style="fill:none;stroke:#f7f9fc;stroke-linecap:round;stroke-linejoin:round;stroke-width:2.28947726111491px"/><polyline points="302.18 226.95 357.25 226.95 357.25 254.74" style="fill:none;stroke:#f7f9fc;stroke-miterlimit:10;stroke-width:2.28947726111491px"/><rect x="316.94" y="195.91" width="31.63" height="58.84" style="fill:none;stroke:#f7f9fc;stroke-miterlimit:10;stroke-width:2.28947726111491px"/><line x1="353.06" y1="226.95" x2="353.06" y2="254.74" style="fill:none;stroke:#f7f9fc;stroke-miterlimit:10;stroke-width:2.28947726111491px"/><line x1="343.32" y1="226.95" x2="343.32" y2="254.74" style="fill:none;stroke:#f7f9fc;stroke-miterlimit:10;stroke-width:2.28947726111491px"/><line x1="337.98" y1="226.95" x2="337.98" y2="254.74" style="fill:none;stroke:#f7f9fc;stroke-miterlimit:10;stroke-width:2.28947726111491px"/><line x1="332.64" y1="226.95" x2="332.64" y2="254.74" style="fill:none;stroke:#f7f9fc;stroke-miterlimit:10;stroke-width:2.28947726111491px"/><line x1="327.3" y1="226.95" x2="327.3" y2="254.74" style="fill:none;stroke:#f7f9fc;stroke-miterlimit:10;stroke-width:2.28947726111491px"/><line x1="321.96" y1="226.95" x2="321.96" y2="254.74" style="fill:none;stroke:#f7f9fc;stroke-miterlimit:10;stroke-width:2.28947726111491px"/><line x1="311.84" y1="226.95" x2="311.84" y2="254.74" style="fill:none;stroke:#f7f9fc;stroke-miterlimit:10;stroke-width:2.28947726111491px"/><polyline points="480.42 226.95 425.34 226.95 425.34 254.74" style="fill:none;stroke:#f7f9fc;stroke-miterlimit:10;stroke-width:2.28947726111491px"/><rect x="434.03" y="195.91" width="31.63" height="58.84" transform="translate(899.68 450.65) rotate(-180)" style="fill:none;stroke:#f7f9fc;stroke-miterlimit:10;stroke-width:2.28947726111491px"/><line x1="429.54" y1="226.95" x2="429.54" y2="254.74" style="fill:none;stroke:#f7f9fc;stroke-miterlimit:10;stroke-width:2.28947726111491px"/><line x1="439.27" y1="226.95" x2="439.27" y2="254.74" style="fill:none;stroke:#f7f9fc;stroke-miterlimit:10;stroke-width:2.28947726111491px"/><line x1="444.61" y1="226.95" x2="444.61" y2="254.74" style="fill:none;stroke:#f7f9fc;stroke-miterlimit:10;stroke-width:2.28947726111491px"/><line x1="449.95" y1="226.95" x2="449.95" y2="254.74" style="fill:none;stroke:#f7f9fc;stroke-miterlimit:10;stroke-width:2.28947726111491px"/><line x1="455.3" y1="226.95" x2="455.3" y2="254.74" style="fill:none;stroke:#f7f9fc;stroke-miterlimit:10;stroke-width:2.28947726111491px"/><line x1="460.64" y1="226.95" x2="460.64" y2="254.74" style="fill:none;stroke:#f7f9fc;stroke-miterlimit:10;stroke-width:2.28947726111491px"/><line x1="470.75" y1="226.95" x2="470.75" y2="254.74" style="fill:none;stroke:#f7f9fc;stroke-miterlimit:10;stroke-width:2.28947726111491px"/><line x1="475.7" y1="226.95" x2="475.7" y2="254.74" style="fill:none;stroke:#f7f9fc;stroke-miterlimit:10;stroke-width:2.28947726111491px"/><line x1="307.27" y1="226.95" x2="307.27" y2="254.74" style="fill:none;stroke:#f7f9fc;stroke-miterlimit:10;stroke-width:2.28947726111491px"/><rect x="320.23" y="198.97" width="24.89" height="27.98" style="fill:#f7f9fc"/><rect x="437.33" y="198.97" width="24.89" height="27.98" style="fill:#f7f9fc"/><rect x="444.86" y="145.6" width="11.78" height="15.62" transform="translate(297.34 604.16) rotate(-90)" style="fill:none;stroke:#f7f9fc;stroke-miterlimit:10;stroke-width:2.28947726111491px"/><rect x="448.19" y="148.95" width="5.12" height="8.92" transform="translate(297.34 604.16) rotate(-90)" style="fill:#f7f9fc"/><rect x="521.29" y="145.6" width="11.78" height="15.62" transform="translate(373.77 680.59) rotate(-90)" style="fill:none;stroke:#f7f9fc;stroke-miterlimit:10;stroke-width:2.28947726111491px"/><rect x="524.62" y="148.95" width="5.12" height="8.92" transform="translate(373.77 680.59) rotate(-90)" style="fill:#f7f9fc"/><rect x="512.61" y="197.03" width="29.14" height="15.62" transform="translate(322.35 732.01) rotate(-90)" style="fill:none;stroke:#f7f9fc;stroke-miterlimit:10;stroke-width:2.28947726111491px"/><rect x="515.94" y="200.37" width="22.48" height="8.92" transform="translate(322.35 732.01) rotate(-90)" style="fill:#f7f9fc"/><rect x="577.12" y="211.88" width="33.91" height="22.1" transform="translate(371.14 817.01) rotate(-90)" style="fill:none;stroke:#f7f9fc;stroke-miterlimit:10;stroke-width:2.28947726111491px"/><rect x="580.45" y="215.23" width="27.25" height="15.41" transform="translate(371.14 817.01) rotate(-90)" style="fill:#f7f9fc"/><rect x="256.17" y="145.6" width="11.78" height="15.62" transform="translate(108.65 415.47) rotate(-90)" style="fill:none;stroke:#f7f9fc;stroke-miterlimit:10;stroke-width:2.28947726111491px"/><rect x="259.5" y="148.95" width="5.12" height="8.92" transform="translate(108.65 415.47) rotate(-90)" style="fill:#f7f9fc"/><rect x="247.49" y="197.03" width="29.14" height="15.62" transform="translate(57.23 466.89) rotate(-90)" style="fill:none;stroke:#f7f9fc;stroke-miterlimit:10;stroke-width:2.28947726111491px"/><rect x="250.82" y="200.37" width="22.48" height="8.92" transform="translate(57.23 466.89) rotate(-90)" style="fill:#f7f9fc"/><path d="M209.54,127.14V140.4h14.58v150l1.14,1.14h77.1l1.14-1.14V279.75h48.63v10.71l1.14,1.14h81.62l1.14-1.14V279.75h44v10.64l1.14,1.14H631.92l1.14-1.14V271.05l-.77-130.65h19.3V127.14l-33.08-34.3-.81-.34H443V48.26h4.76l1.14-1.14V34.79l-.47-.47.14-.33L416.52,1.91l-1.65,0L386,33.65h-.67l-1.14,1.14V47.12l1.14,1.14h4.77V92.5H244.13Z" style="fill:none;stroke:#f7f9fc;stroke-linejoin:round;stroke-width:3.81579543519152px"/><rect x="326.87" y="145.6" width="11.78" height="15.62" transform="translate(179.36 486.17) rotate(-90)" style="fill:none;stroke:#f7f9fc;stroke-miterlimit:10;stroke-width:2.28947726111491px"/><rect x="330.2" y="148.95" width="5.12" height="8.92" transform="translate(179.36 486.17) rotate(-90)" style="fill:#f7f9fc"/><rect x="378.16" y="183.89" width="28.38" height="54.35" transform="translate(181.29 603.41) rotate(-90)" style="fill:none;stroke:#f7f9fc;stroke-miterlimit:10;stroke-width:2.28947726111491px"/><rect x="381.49" y="187.24" width="21.72" height="47.65" transform="translate(181.29 603.41) rotate(-90)" style="fill:#f7f9fc"/></g></g></svg>