<svg xmlns="http://www.w3.org/2000/svg" viewBox="0 0 220.07 73.98"><style><![CDATA[.G{stroke-width:.6}.H{stroke-miterlimit:10}.I{fill:none}.J{stroke:#28347b}.K{fill:#28347b}.L{stroke-linejoin:round}.M{stroke-linecap:round}]]></style><g class="I J"><path d="M219.57 34.37l-6-5.87-.2-.1h-49.03l-5.1-5-.2-.1H114.3V12.18h1.22l.3-.3V8.8l-.12-.12v-.1L107.5.5h-.42l-7.4 8h-.17l-.3.3v3.1l.3.3h1.22v11.14H87.34V20.5l-.12-.1v-.1l-8.72-8.6-.2-.1H9.54l-.2.1-8.76 8.6v.1l-.08.1v3.1l.3.3h3v46.93l.3.3h54.15v2l.3.3h19.76l.3-.3V70.5H91v2.7l.3.3h20.9l.3-.3v-2.7h11.26v2.68l.3.3h38.65l.3-.3V68.3h53.46l.3-.3V38H219l.3-.3v-2.86h.12z" class="L"/><path d="M87.26 20.3H.6m86.66 3.03H.6m113.53 0h-13.28" class="H"/><path d="M63.34 23.33l-8.86 8.73H167.7l-4.4-4.37" class="G L M"/><g class="H"><path d="M114.13 12.18h-13.28"/><path d="M116.08 8.8h-16.7m6.12 6.34h4v5.08h-4z" class="G"/></g></g><path d="M106.36 15.98h2.3v3.4h-2.3z" class="K"/><g class="I J G"><g class="L M"><path d="M167.7 32.06v3.33H54.48v-3.33m113.22 2.52h51.26m-56 3.22H217m-54.23-2.4v32.88M143 35.4v38.1m-19.05-38.1v38.1M78.2 35.4v38.1M58.5 35.4v38.1m55.63-3.18H89.6m20.87 0v-3.1H93.03v3.1"/><path d="M107.65 67.3v-3.1h-11.8v3.1"/><path d="M123.92 64.2H78.28"/></g><g class="H"><path d="M78.2 57.2h14.1v7"/><path d="M82 49.38h8.1V64.2H82zm9.24 7.82v7"/><path d="M88.74 57.2v7m-1.36-7v7m-1.38-7v7m-1.36-7v7m-1.37-7v7m-2.6-7v7m43.18-7h-14.1v7"/><path d="M112 49.37h8.1V64.2H112zm-1.16 7.83v7"/><path d="M113.33 57.2v7m1.37-7v7m1.36-7v7m1.37-7v7m1.37-7v7m2.6-7v7m1.26-7v7m-43.16-7v7"/></g></g><path d="M82.83 50.15h6.37v7.05h-6.37zm30 0h6.37v7.05h-6.37z" class="K"/><path d="M114.26 37.2h4v2.97h-4z" class="G H I J"/><path d="M115.12 38.02h2.3v1.3h-2.3z" class="K"/><path d="M133.84 37.2h4v2.97h-4z" class="G H I J"/><path d="M134.7 38.02h2.3v1.3h-2.3z" class="K"/><path d="M133.84 47.95h4v7.34h-4z" class="G H I J"/><path d="M134.7 48.8h2.3v5.66h-2.3z" class="K"/><path d="M150.15 51.92h5.66v8.55h-5.66z" class="G H I J"/><path d="M151 52.75h3.95v6.86H151z" class="K"/><path d="M168.58 39.8h5.66v8.55h-5.66z" class="G H I J"/><path d="M169.44 40.64h3.95v6.86h-3.95z" class="K"/><path d="M205 39.8h5.66v8.55H205z" class="G H I J"/><path d="M205.85 40.65h3.95v6.86h-3.95z" class="K"/><path d="M188.03 39.8h5.66v4.94h-5.66z" class="G H I J"/><path d="M188.9 40.64h3.95v3.26h-3.95z" class="K"/><path d="M180.2 53.8h5.66v5.9h-5.66z" class="G H I J"/><path d="M181.06 54.66H185v4.22h-3.95z" class="K"/><path d="M168.48 54.16h5.66v11.86h-5.66z" class="G H I J"/><path d="M169.34 55h3.95V65.2h-3.95z" class="K"/><path d="M65.93 37.2h4v2.97h-4z" class="G H I J"/><path d="M66.8 38.02h2.3v1.3h-2.3z" class="K"/><path d="M65.93 47.95h4v7.34h-4z" class="G H I J"/><path d="M66.8 48.8h2.3v5.66h-2.3z" class="K"/><path d="M12.02 48.44h5.95v6.72h-5.95z" class="G H I J"/><path d="M12.87 49.27h4.24v5.04h-4.24z" class="K"/><path d="M43.05 48.43h8.7v7.34h-8.7z" class="G H I J"/><path d="M43.9 49.28h6.98v5.66H43.9z" class="K"/><path d="M43.05 30.73h8.7v6.53h-8.7z" class="G H I J"/><path d="M43.9 31.57h6.98v4.84H43.9z" class="K"/><path d="M28.3 30.73h6v6.53h-6z" class="G H I J"/><path d="M29.15 31.58h4.3v4.84h-4.3z" class="K"/><path d="M28.3 48.36h6v9.4h-6z" class="G H I J"/><path d="M29.14 49.2h4.3v7.73h-4.3z" class="K"/><path d="M12 30.73h6v9.8h-6z" class="G H I J"/><path d="M12.85 31.57h4.3v8.1h-4.3z" class="K"/><path d="M84.04 37.2h4v2.97h-4z" class="G H I J"/><path d="M84.9 38.02h2.3v1.3h-2.3z" class="K"/><path d="M94.35 49.62h13.92v7.15H94.35z" class="G H I J"/><path d="M95.2 50.46h12.2v5.47H95.2z" class="K"/><g class="H I J"><path d="M176.13 68.3v-2.28h-9.75v2.28" stroke-width=".78"/><path d="M205.03 54.16h5.66v11.86h-5.66z" class="G"/></g><path d="M205.9 55h3.95V65.2h-3.95z" class="K"/><path d="M212.7 68.3v-2.28h-9.76v2.28" stroke-width=".78" class="H I J"/></svg>