<svg xmlns="http://www.w3.org/2000/svg" viewBox="0 0 224.94 162.15"><style><![CDATA[.G{fill:none}.H{stroke:#f7f9fd}.I{stroke-width:2.29}.J{stroke-miterlimit:10}.K{fill:#f7f9fd}.L{stroke-linejoin:round}.M{stroke-width:2.99}]]></style><path d="M201.58 2.55l-.8-.34H9.22L20.9 15.1l.28 13.77H3.84V160.9H212.6l1.14-1.14V40.2h8.78l1.14-1.14V27.85h.47l.8-1.95-23.36-23.35z" fill="#4055a2"/><g class="G H I"><path d="M20.42 26.34H220.5M1.9 39.13h210.95" stroke-linecap="round" class="L"/><path d="M23.8 81V47.1h22.1V81z" class="J"/></g><path d="M27.16 77.67V50.42h15.4v27.25z" class="K"/><path d="M165.95 81V47.1h22.1V81z" class="G H I J"/><path d="M169.3 77.68V50.43h15.4v27.25z" class="K"/><path d="M99.75 66.7V47.1h22.1v19.6z" class="G H I J"/><path d="M103.1 63.36V50.42h15.4v12.94z" class="K"/><path d="M69.2 126.12V102.7h22.1v23.42z" class="G H I J"/><path d="M72.55 122.8v-16.76h15.4v16.76z" class="K"/><path d="M23.42 151.18V104.1h22.1v47.08z" class="G H I J"/><path d="M26.77 147.85v-40.42h15.4v40.42z" class="K"/><g class="G H J"><path d="M53.3 160.24v-9.07H15.25v9.07" class="M"/><path d="M166.13 151.17V104.1h22.1v47.08z" class="I"/></g><path d="M169.48 147.84v-40.42h15.4v40.42z" class="K"/><g class="G H"><path d="M196.03 160.24v-9.07h-38.06v9.07" class="J M"/><path d="M20.42 16.33V29.6H1.9v130.65h208.65l1.14-1.14V39.82h8.75l1.14-1.14V27.5h.47l.8-1.95-23.3-23.3-.8-.33H7.25z" stroke-width="3.82" class="L"/></g></svg>