<svg xmlns="http://www.w3.org/2000/svg" viewBox="0 0 342.87 247.39"><style><![CDATA[.F{stroke-miterlimit:10}.G{fill:none}.H{stroke:#f7f9fd}.I{stroke-width:2.29}.J{fill:#f7f9fd}]]></style><path d="M228.14 247.4V94.75h-18.42l.33-14.86 32.03-32h99.68v-10.4l-.47-.47.14-.34L307.16 2.4l-.8-.33H37.32l-.8.33L2.24 36.66l.14.34-.47.47v12.36l1.14 1.14H14.6v186.78l1.14 1.14H227.8v8.15l.35.35z" fill="#28347b"/><g class="G H"><g stroke-width="3.82"><path d="M341 48.43v-11.2l-.47-.47.14-.34-34.23-34.2-.8-.33H37.24l-.8.33-34.2 34.2.14.34-.47.47v12.33l1.14 1.14h11.5v186.34l1.14 1.14h211.56" stroke-linejoin="round"/><path d="M340.63 36.43H2.38m338.25 12H2.38" class="F"/></g><path d="M46.9 174.76V148.1h23.25v26.66z" class="F I"/></g><path d="M50.26 171.43v-20H66.8v20z" class="J"/><path d="M168.06 177.24V148.1H202v29.14z" class="F G H I"/><path d="M171.4 173.9v-22.48h27.23v22.48z" class="J"/><path d="M168.07 103.72v-25.9H202v25.9z" class="F G H I"/><path d="M171.42 100.4V81.15h27.23v19.24z" class="J"/><path d="M110.45 103.7V77.8h23.44v25.9z" class="F G H I"/><path d="M113.8 100.38V81.14h16.74v19.24z" class="J"/><path d="M110.44 185.16V147.8h23.44v37.35z" class="F G H I"/><path d="M113.8 181.83v-30.7h16.74v30.7z" class="J"/><path d="M46.82 116.7V77.82h23.44v38.87z" class="F G H I"/><path d="M50.17 113.36v-32.2H66.9v32.2z" class="J"/></svg>