<svg xmlns="http://www.w3.org/2000/svg" viewBox="0 0 342.87 247.39"><defs><style>.cls-1{fill:#28347b;}.cls-2,.cls-3,.cls-4{fill:none;stroke:#f7f9fd;}.cls-2{stroke-linejoin:round;}.cls-2,.cls-3{stroke-width:3.82px;}.cls-3,.cls-4{stroke-miterlimit:10;}.cls-4{stroke-width:2.29px;}.cls-5{fill:#f7f9fd;}</style></defs><title>Ativo 4</title><g id="Camada_2" data-name="Camada 2"><g id="Camada_1-2" data-name="Camada 1"><polygon class="cls-1" points="228.14 247.39 228.14 94.75 209.72 94.75 210.05 79.89 242.08 47.88 341.76 47.88 341.76 37.47 341.29 37 341.43 36.66 307.16 2.39 306.35 2.06 37.32 2.06 36.52 2.39 2.24 36.66 2.38 37 1.91 37.47 1.91 49.83 3.05 50.97 14.59 50.97 14.59 237.75 15.73 238.89 227.79 238.89 227.79 247.04 228.14 247.39"/><path class="cls-2" d="M341,48.43V37.24l-.47-.47.14-.34L306.44,2.24l-.81-.33H37.24l-.81.33L2.24,36.43l.14.34-.47.47V49.57l1.14,1.14H14.56V237.05l1.14,1.14H227.26"/><line class="cls-3" x1="340.63" y1="36.43" x2="2.38" y2="36.43"/><line class="cls-3" x1="340.63" y1="48.43" x2="2.38" y2="48.43"/><rect class="cls-4" x="45.21" y="149.8" width="26.66" height="23.25" transform="translate(-102.89 219.97) rotate(-90)"/><rect class="cls-5" x="48.54" y="153.15" width="20" height="16.55" transform="translate(-102.89 219.97) rotate(-90)"/><rect class="cls-4" x="170.46" y="145.7" width="29.14" height="33.93" transform="translate(22.36 347.7) rotate(-90)"/><rect class="cls-5" x="173.79" y="149.05" width="22.48" height="27.23" transform="translate(22.36 347.7) rotate(-90)"/><rect class="cls-4" x="172.08" y="73.8" width="25.9" height="33.93" transform="translate(94.27 275.8) rotate(-90)"/><rect class="cls-5" x="175.41" y="77.15" width="19.24" height="27.23" transform="translate(94.27 275.8) rotate(-90)"/><rect class="cls-4" x="109.22" y="79.05" width="25.9" height="23.44" transform="translate(31.4 212.93) rotate(-90)"/><rect class="cls-5" x="112.55" y="82.4" width="19.24" height="16.74" transform="translate(31.4 212.93) rotate(-90)"/><rect class="cls-4" x="103.49" y="154.76" width="37.35" height="23.44" transform="translate(-44.32 288.65) rotate(-90)"/><rect class="cls-5" x="106.82" y="158.11" width="30.69" height="16.74" transform="translate(-44.32 288.65) rotate(-90)"/><rect class="cls-4" x="39.11" y="85.53" width="38.87" height="23.44" transform="translate(-38.71 155.8) rotate(-90)"/><rect class="cls-5" x="42.44" y="88.88" width="32.21" height="16.74" transform="translate(-38.71 155.8) rotate(-90)"/></g></g></svg>