<?xml version="1.0" encoding="utf-8"?>
<svg version="1.1" id="Camada_1" xmlns="http://www.w3.org/2000/svg" xmlns:xlink="http://www.w3.org/1999/xlink" x="0px" y="0px"
	 viewBox="0 0 250 38" style="enable-background:new 0 0 250 38;" xml:space="preserve">
<style type="text/css">
	.st0{fill:#28347B;}
</style>
<g>
	<path class="st0" d="M24.3,3.5l-0.2,0.9h-1.8L9.2,28.7H8L4.7,4.4h-2L3,3.5h8.8l-0.2,0.9h-2l2.2,17.2l9.3-17.2h-2l0.2-0.9H24.3z"/>
	<path class="st0" d="M24.8,23.5l2.9-13.7h-2l0.2-0.9h6l-3.1,14.7c-0.5,2.4,0.2,3.1,1.2,3.1c1,0,2.5-1.1,3-5.5H34
		c-0.9,7.1-3.4,8.1-5.6,8.1C26.2,29.2,23.9,27.8,24.8,23.5z M27.8,3.7c0-1.5,1.2-2.7,2.7-2.7c1.5,0,2.7,1.2,2.7,2.7
		s-1.2,2.7-2.7,2.7C29.1,6.5,27.8,5.3,27.8,3.7z"/>
	<path class="st0" d="M40.1,29.2c-2.3,0-4.5-1.8-3.5-6.4L41,2.3h-2l0.2-0.9h6.2l-4.7,22.1c-0.5,2.3,0.2,3.1,1.1,3.1
		c1.2,0,2.4-1,3.1-5.5h1C44.8,27.8,42.5,29.2,40.1,29.2z"/>
	<path class="st0" d="M51.9,29.2c-2.3,0-4.5-1.8-3.5-6.4l4.4-20.6h-2l0.2-0.9h6.2l-4.7,22.1c-0.5,2.3,0.2,3.1,1.1,3.1
		c1.2,0,2.4-1,3.1-5.5h1C56.7,27.8,54.3,29.2,51.9,29.2z"/>
	<path class="st0" d="M80.6,21.1c-0.9,6.3-2.6,8.1-5.1,8.1c-2.4,0-4-2.2-3.5-5.5h-0.1c-1.4,3.8-3.5,5.6-6,5.6
		c-3.3,0-5.8-2.8-5.8-6.7c0-8.5,4.8-14.1,9.8-14.1h0c2.8,0,4.1,2,5.9,2c0.9,0,1.5-0.9,1.7-2h1l-2.9,13.7c-0.5,2.2-0.2,4.2,1.2,4.2
		c1.3,0,2.1-1.1,2.7-5.2H80.6z M71.3,21.1l1.2-5.9c0.7-3.8-0.3-5.1-1.9-5.1c-3.4,0-6.2,6.8-6.2,12.9c0,2.9,1,4.4,2.6,4.4
		C68.8,27.4,70.4,24.9,71.3,21.1z"/>
	<path class="st0" d="M112.4,13.2c0,9.8-7.7,15.5-16.7,15.5h-7.1l0.2-0.9h2l5-23.4h-2L94,3.5h7.4C108.1,3.5,112.4,7.5,112.4,13.2z
		 M107.6,11.9c0-3.4-1.4-7.4-6.4-7.4h-0.8l-4.9,23.1H96C105.5,27.6,107.6,18,107.6,11.9z"/>
	<path class="st0" d="M117,7c0-1.2-0.4-1.6-0.4-3.1c0-1.6,1.2-2.9,3-2.9c1.6,0,2.5,1.1,2.5,2.7c0,2.9-3.4,5.1-6.5,6.6l-0.3-0.6
		C116.1,9.1,117,8.3,117,7z"/>
	<path class="st0" d="M136.7,27.8l-0.2,0.9h-8.8l0.2-0.9h2l-0.7-4.8h-8.8c-6.2,9.5-12.3,14.8-17.7,14.8c-3.1,0-5.8-1.2-5.8-4.4
		c0-0.9,0.4-2,0.8-2.7h1.1c-0.3,2.1,3.1,2.4,4.9,2.4c8,0,15.4-6.2,26-29.5h1.2l3.9,24.3H136.7z M129,21.9l-1.7-11.1
		c-2.1,4.1-4.2,7.8-6.3,11.1H129z"/>
	<path class="st0" d="M160.8,21c-0.9,6.7-3,8.2-5.4,8.2c-1.9,0-3.9-1.1-3.9-4.3c0-3.9,2.7-9.4,2.7-13c0-1.2-0.6-1.9-1.7-1.9
		c-2,0-5.1,3.2-6.5,10.2l-1.8,8.5h-4.2l3.2-15.3c0.3-1.6,0.2-2.6-0.7-2.6c-1,0-1.9,1.3-2.3,4.1h-1c0.6-5.1,3.2-6.5,4.9-6.5
		c2.4,0,3.7,1.8,2.9,5.3v0.1c1.5-3.2,3.7-5.3,6.7-5.3c3.2,0,4.6,2.2,4.6,4.5c0,3.7-2.6,8.4-2.6,11.9c0,1.1,0.5,1.8,1.3,1.8
		c1,0,2-0.8,2.6-5.5H160.8z"/>
	<path class="st0" d="M163.8,20.8c0-7.7,5.6-12.6,11.2-12.6c3.1,0,5.5,2.1,5.5,4.7c0,2.3-1.6,4.1-3.8,4.1c-1.5,0-2.5-1-2.5-2.1
		c0-2.3,2.9-2.1,2.9-4.1c0-0.8-0.6-1.4-1.5-1.4c-3.5,0-7.4,5-7.4,11.5c0,4.9,2.3,6.7,4.4,6.7c1.9,0,4-1.5,5-4.6l1.1,0.3
		c-0.7,2.4-2.5,5.9-7.3,5.9C166.9,29.3,163.8,26.4,163.8,20.8z"/>
	<path class="st0" d="M181.9,21.7c0-8,4.7-13.4,10.7-13.4c4.3,0,7,3.4,7,7.8c0,6.9-4.5,13.1-10.9,13.1
		C184.2,29.2,181.9,25.6,181.9,21.7z M195.2,14.6c0-3.5-1.2-5.1-2.9-5.1c-3.9,0-6.4,7.2-6.4,13.6c0,2.7,0.9,4.7,3,4.7
		C193.8,27.9,195.2,17.9,195.2,14.6z"/>
	<path class="st0" d="M223.9,21c-0.9,6.7-3,8.2-5.4,8.2c-1.9,0-3.9-1.1-3.9-4.3c0-3.9,2.7-9.4,2.7-13c0-1.2-0.6-1.9-1.7-1.9
		c-2,0-5.1,3.2-6.5,10.2l-1.8,8.5h-4.2l3.2-15.3c0.3-1.6,0.2-2.6-0.7-2.6c-1,0-1.9,1.3-2.3,4.1h-1c0.6-5.1,3.2-6.5,4.9-6.5
		c2.4,0,3.7,1.8,2.9,5.3v0.1c1.5-3.2,3.7-5.3,6.7-5.3c3.2,0,4.6,2.2,4.6,4.5c0,3.7-2.6,8.4-2.6,11.9c0,1.1,0.5,1.8,1.3,1.8
		c1,0,2-0.8,2.6-5.5H223.9z"/>
	<path class="st0" d="M246.3,21.1c-0.9,6.3-2.6,8.1-5.1,8.1c-2.4,0-4-2.2-3.5-5.5h-0.1c-1.4,3.8-3.5,5.6-6,5.6
		c-3.3,0-5.8-2.8-5.8-6.7c0-8.5,4.8-14.1,9.8-14.1h0c2.8,0,4.1,2,5.9,2c0.9,0,1.5-0.9,1.7-2h1l-2.9,13.7c-0.5,2.2-0.2,4.2,1.2,4.2
		c1.3,0,2.1-1.1,2.7-5.2H246.3z M237.1,21.1l1.2-5.9c0.7-3.8-0.3-5.1-1.9-5.1c-3.4,0-6.2,6.8-6.2,12.9c0,2.9,1,4.4,2.6,4.4
		C234.5,27.4,236.1,24.9,237.1,21.1z"/>
</g>
</svg>
