<svg xmlns="http://www.w3.org/2000/svg" viewBox="0 0 25.3 25.3"><defs><style>.cls-1{fill:#fff;}</style></defs><title>Ativo 3</title><g id="Camada_2" data-name="Camada 2"><g id="Camada_1-2" data-name="Camada 1"><path class="cls-1" d="M15.07,12.65a2.42,2.42,0,1,1-2.42-2.42A2.42,2.42,0,0,1,15.07,12.65Z"/><path class="cls-1" d="M12.65,16.38a3.73,3.73,0,1,1,3.73-3.73A3.73,3.73,0,0,1,12.65,16.38Zm3.88-6.73a.88.88,0,1,1,.87-.88A.87.87,0,0,1,16.53,9.65Z"/><path class="cls-1" d="M12.65,0A12.65,12.65,0,1,0,25.3,12.65,12.66,12.66,0,0,0,12.65,0Zm7.22,15.65a5.45,5.45,0,0,1-.33,1.76,3.72,3.72,0,0,1-2.13,2.13,5.45,5.45,0,0,1-1.76.33c-.78,0-1,.05-3,.05s-2.22,0-3-.05a5.52,5.52,0,0,1-1.77-.33,3.65,3.65,0,0,1-1.28-.84,3.56,3.56,0,0,1-.84-1.29,5.42,5.42,0,0,1-.34-1.76c0-.78,0-1,0-3s0-2.22,0-3a5.49,5.49,0,0,1,.34-1.77A3.77,3.77,0,0,1,7.89,5.77a5.49,5.49,0,0,1,1.77-.34c.77,0,1,0,3,0s2.22,0,3,0a5.42,5.42,0,0,1,1.76.34,3.56,3.56,0,0,1,1.29.84,3.65,3.65,0,0,1,.84,1.28,5.26,5.26,0,0,1,.33,1.77c0,.77.05,1,.05,3S19.91,14.87,19.87,15.65Z"/></g></g></svg>