<svg id="Camada_1" data-name="Camada 1" xmlns="http://www.w3.org/2000/svg" xmlns:xlink="http://www.w3.org/1999/xlink" viewBox="0 0 1184.31 1118.22"><defs><style>.cls-1{fill:none;}.cls-2{fill:#76777a;}.cls-3{clip-path:url(#clip-path);}.cls-4{fill:#28347b;}</style><clipPath id="clip-path"><rect class="cls-1" x="-592.96" width="2371" height="1118.22"/></clipPath></defs><rect class="cls-2" x="-592.96" width="2371" height="1118.22"/><g class="cls-3"><polygon class="cls-4" points="925.5 1233.18 1442.85 1233.18 1184.17 974.48 925.5 1233.18"/><polygon class="cls-4" points="-258.8 1233.18 258.55 1233.18 -0.13 974.48 -258.8 1233.18"/><path class="cls-4" d="M-2620.26,17.22v317l251.57-251.39,591.93,591.74.18-1v1l592.2-591.74,591.91,589.75L-.08,82.79,591.84,674.53l.18-.95v.95l592.2-591.74,591.92,591.74L2368.33,82.79l591.92,591.74.19-.95v.95L3552.63,82.79l591.92,591,592.39-591,591.92,591.74.18-.95v.95l592.2-591.74L6242.55,404V17.22Zm843.74,432.64-.06-.3h.06Zm2368.6,0-.06-.3h.06Zm2368.42,0-.06-.3h.06Zm2368.6,0-.06-.3h.06Z"/><polygon class="cls-4" points="5329.1 1008.07 5329.1 1008.33 5329.04 1008.02 4737.02 416.02 4144.74 1008.33 3552.72 416.02 2960.5 1008.07 2960.5 1008.33 2960.44 1008.02 2368.42 416.02 1776.28 1007.98 1184.31 416.02 592.08 1008.07 592.08 1008.33 592.02 1008.02 0 416.02 -592.28 1008.47 -1184.3 416.02 -1776.52 1008.07 -1776.52 1008.33 -1776.58 1008.02 -2368.6 416.02 -2620.26 667.61 -2620.26 892.64 -2368.69 641.26 -1776.76 1232.99 -1776.58 1232.04 -1776.58 1232.99 -1184.38 641.26 -592.47 1231.04 -0.08 641.26 591.84 1232.99 592.02 1232.04 592.02 1232.99 1184.22 641.26 1776.14 1232.99 2368.33 641.26 2960.25 1232.99 2960.44 1232.04 2960.44 1232.99 3552.63 641.26 4144.55 1232.25 4736.94 641.26 5328.86 1232.99 5329.04 1232.04 5329.04 1232.99 5921.24 641.26 6242.55 962.47 6242.55 737.24 5921.32 416.02 5329.1 1008.07"/></g><rect class="cls-4" x="-796.45" y="-226.57" width="2642.55" height="266.55"/></svg>