<svg xmlns="http://www.w3.org/2000/svg" viewBox="0 0 3000 500" fill="#4056af"><path d="M693.4 232.4s200.9-151.2 495-81 557.5 83.7 756.9 54 448.4-80.7 527.3-22.8 0 641.1 0 641.1L747.2 747.9l-53.8-515.5z"/><path d="M4046.2 465.7s-178.1-177.5-479.1-148.6-563.7 5.9-757.1-51-432.9-141.8-519.1-95.4-88.5 635-88.5 635l1719.3 163.2 124.5-503.2zM1342.8 217S1135 75.4 844.5 159.4 291.6 269.2 91.1 249s-451.7-59.5-527.8 2.1c-76.1 61.5 30.2 640.4 30.2 640.4l1719.9-157 29.4-517.5z"/><path d="M693.4 231.4s200.9-151.2 495-81 557.5 83.7 756.9 54 448.4-80.7 527.3-22.8 0 641.1 0 641.1L747.2 746.9l-53.8-515.5z"/><path d="M4046.2 464.7s-178.1-177.5-479.1-148.6-563.7 5.9-757.1-51-432.9-141.8-519.1-95.4-88.5 635-88.5 635l1719.3 163.2 124.5-503.2zM1342.8 216S1135 74.4 844.5 158.4 291.6 268.2 91.1 248s-451.7-59.5-527.8 2.1c-76.1 61.5 30.2 640.4 30.2 640.4l1719.9-157 29.4-517.5z"/><path d="M693.4 230.4s200.9-151.2 495-81 557.5 83.7 756.9 54 448.4-80.7 527.3-22.8 0 641.1 0 641.1L747.2 745.9l-53.8-515.5z"/><path d="M4046.2 463.7s-178.1-177.5-479.1-148.6-563.7 5.9-757.1-51-432.9-141.8-519.1-95.4-88.5 635-88.5 635l1719.3 163.2 124.5-503.2zM1342.8 215S1135 73.4 844.5 157.4 291.6 267.2 91.1 247s-451.7-59.5-527.8 2.1c-76.1 61.5 30.2 640.4 30.2 640.4l1719.9-157 29.4-517.5z"/><path d="M693.4 229.4s200.9-151.2 495-81 557.5 83.7 756.9 54 448.4-80.7 527.3-22.8 0 641.1 0 641.1L747.2 744.9l-53.8-515.5z"/><path d="M4046.2 462.7s-178.1-177.5-479.1-148.6-563.7 5.9-757.1-51-432.9-141.8-519.1-95.4-88.5 635-88.5 635l1719.3 163.2 124.5-503.2zM1342.8 214S1135 72.4 844.5 156.4 291.6 266.2 91.1 246s-451.7-59.5-527.8 2.1c-76.1 61.5 30.2 640.4 30.2 640.4l1719.9-157 29.4-517.5z"/><path d="M693.4 228.4s200.9-151.2 495-81 557.5 83.7 756.9 54 448.4-80.7 527.3-22.8 0 641.1 0 641.1L747.2 743.9l-53.8-515.5z"/><path d="M4046.2 461.7s-178.1-177.5-479.1-148.6-563.7 5.9-757.1-51-432.9-141.8-519.1-95.4-88.5 635-88.5 635l1719.3 163.2 124.5-503.2zM1342.8 213S1135 71.4 844.5 155.4 291.6 265.2 91.1 245s-451.7-59.5-527.8 2.1c-76.1 61.5 30.2 640.4 30.2 640.4l1719.9-157 29.4-517.5z"/><path d="M693.4 107.4s200.9-151.2 495-81 557.5 83.7 756.9 54 448.4-80.7 527.3-22.8 0 641.1 0 641.1L747.2 622.9l-53.8-515.5z"/><path d="M4046.2 340.7s-178.1-177.5-479.1-148.6-563.7 5.9-757.1-51S2377.1-.7 2290.9 45.7s-88.5 635-88.5 635l1719.3 163.2 124.5-503.2zM1342.8 92S1135-49.6 844.5 34.4 291.6 144.2 91.1 124s-451.7-59.5-527.8 2.1c-76.1 61.5 30.2 640.4 30.2 640.4l1719.9-157L1342.8 92z"/></svg>