<svg xmlns="http://www.w3.org/2000/svg" viewBox="0 0 3000 500" fill="#4a64b8"><path d="M431.6 22.4c.1-2.7 2.4-4.8 5.1-4.6 49.7 3.3 466.3 33.4 815 147.7 371.5 121.7 550.7 171.1 760.5 115.1 94.8-25.3 332.2-190.8 485.1-108.6v1102.1H395.2L431.6 22.4z"/><path d="M435.6 17.7c-223-21.4-308.7 39.9-778.9 154.4-515.9 125.7-692.8 133.1-760.4 115.1-94.8-25.3-332.2-190.8-485.1-108.6v1102.1H513.3c409.8-402.8 555.3-850.5 402.9-1069.8C806.7 53.3 553.7 29 435.6 17.7zm3920.8 4.4c-.1-2.7-2.4-4.8-5.1-4.6-49.7 3.3-466.3 33.4-815 147.7-371.5 121.7-550.7 171.1-760.5 115.1-94.8-25.3-332.2-190.8-485.1-108.6v1102.1h2102.2L4356.4 22.1z"/></svg>