<?xml version="1.0" encoding="utf-8"?>
<!-- Generator: Adobe Illustrator 24.0.2, SVG Export Plug-In . SVG Version: 6.00 Build 0)  -->
<svg version="1.1" id="Camada_1" xmlns="http://www.w3.org/2000/svg" xmlns:xlink="http://www.w3.org/1999/xlink" x="0px" y="0px"
	 viewBox="0 0 3000 500" style="enable-background:new 0 0 3000 500;" xml:space="preserve">
<style type="text/css">
	.st0{fill:#4A64B8;}
</style>
<path class="st0" d="M431.6,22.4c0.1-2.7,2.4-4.8,5.1-4.6c49.7,3.3,466.3,33.4,815,147.7c371.5,121.7,550.7,171.1,760.5,115.1
	c94.8-25.3,332.2-190.8,485.1-108.6v1102.1H395.2L431.6,22.4z"/>
<path class="st0" d="M435.6,17.7C212.6-3.7,126.9,57.6-343.3,172.1c-515.9,125.7-692.8,133.1-760.4,115.1
	c-94.8-25.3-332.2-190.8-485.1-108.6v1102.1H513.3c409.8-402.8,555.3-850.5,402.9-1069.8C806.7,53.3,553.7,29,435.6,17.7z
	 M4356.4,22.1c-0.1-2.7-2.4-4.8-5.1-4.6c-49.7,3.3-466.3,33.4-815,147.7c-371.5,121.7-550.7,171.1-760.5,115.1
	C2681,255,2443.6,89.5,2290.7,171.7v1102.1h2102.2L4356.4,22.1z"/>
<path class="st0" d="M435.9,18.1"/>
</svg>
