<?xml version="1.0" encoding="utf-8"?>
<!-- Generator: Adobe Illustrator 24.0.2, SVG Export Plug-In . SVG Version: 6.00 Build 0)  -->
<svg version="1.1" id="Camada_1" xmlns="http://www.w3.org/2000/svg" xmlns:xlink="http://www.w3.org/1999/xlink" x="0px" y="0px"
	 viewBox="0 0 3000 500" style="enable-background:new 0 0 3000 500;" xml:space="preserve">
<style type="text/css">
	.st0{fill:#4056AF;}
</style>
<path class="st0" d="M693.4,232.4c0,0,200.9-151.2,495-81s557.5,83.7,756.9,54c199.4-29.7,448.4-80.7,527.3-22.8s0,641.1,0,641.1
	L747.2,747.9L693.4,232.4z"/>
<path class="st0" d="M4046.2,465.7c0,0-178.1-177.5-479.1-148.6s-563.7,5.9-757.1-51s-432.9-141.8-519.1-95.4s-88.5,635-88.5,635
	l1719.3,163.2L4046.2,465.7z M1342.8,217c0,0-207.8-141.6-498.3-57.6S291.6,269.2,91.1,249s-451.7-59.5-527.8,2.1
	c-76.1,61.5,30.2,640.4,30.2,640.4l1719.9-157L1342.8,217z"/>
<path class="st0" d="M693.4,231.4c0,0,200.9-151.2,495-81s557.5,83.7,756.9,54c199.4-29.7,448.4-80.7,527.3-22.8s0,641.1,0,641.1
	L747.2,746.9L693.4,231.4z"/>
<path class="st0" d="M4046.2,464.7c0,0-178.1-177.5-479.1-148.6s-563.7,5.9-757.1-51s-432.9-141.8-519.1-95.4s-88.5,635-88.5,635
	l1719.3,163.2L4046.2,464.7z M1342.8,216c0,0-207.8-141.6-498.3-57.6S291.6,268.2,91.1,248s-451.7-59.5-527.8,2.1
	c-76.1,61.5,30.2,640.4,30.2,640.4l1719.9-157L1342.8,216z"/>
<path class="st0" d="M693.4,230.4c0,0,200.9-151.2,495-81s557.5,83.7,756.9,54c199.4-29.7,448.4-80.7,527.3-22.8s0,641.1,0,641.1
	L747.2,745.9L693.4,230.4z"/>
<path class="st0" d="M4046.2,463.7c0,0-178.1-177.5-479.1-148.6s-563.7,5.9-757.1-51s-432.9-141.8-519.1-95.4s-88.5,635-88.5,635
	l1719.3,163.2L4046.2,463.7z M1342.8,215c0,0-207.8-141.6-498.3-57.6S291.6,267.2,91.1,247s-451.7-59.5-527.8,2.1
	c-76.1,61.5,30.2,640.4,30.2,640.4l1719.9-157L1342.8,215z"/>
<path class="st0" d="M693.4,229.4c0,0,200.9-151.2,495-81s557.5,83.7,756.9,54c199.4-29.7,448.4-80.7,527.3-22.8s0,641.1,0,641.1
	L747.2,744.9L693.4,229.4z"/>
<path class="st0" d="M4046.2,462.7c0,0-178.1-177.5-479.1-148.6s-563.7,5.9-757.1-51s-432.9-141.8-519.1-95.4s-88.5,635-88.5,635
	l1719.3,163.2L4046.2,462.7z M1342.8,214c0,0-207.8-141.6-498.3-57.6S291.6,266.2,91.1,246s-451.7-59.5-527.8,2.1
	c-76.1,61.5,30.2,640.4,30.2,640.4l1719.9-157L1342.8,214z"/>
<path class="st0" d="M693.4,228.4c0,0,200.9-151.2,495-81s557.5,83.7,756.9,54c199.4-29.7,448.4-80.7,527.3-22.8s0,641.1,0,641.1
	L747.2,743.9L693.4,228.4z"/>
<path class="st0" d="M4046.2,461.7c0,0-178.1-177.5-479.1-148.6s-563.7,5.9-757.1-51s-432.9-141.8-519.1-95.4s-88.5,635-88.5,635
	l1719.3,163.2L4046.2,461.7z M1342.8,213c0,0-207.8-141.6-498.3-57.6S291.6,265.2,91.1,245s-451.7-59.5-527.8,2.1
	c-76.1,61.5,30.2,640.4,30.2,640.4l1719.9-157L1342.8,213z"/>
<path class="st0" d="M693.4,107.4c0,0,200.9-151.2,495-81s557.5,83.7,756.9,54s448.4-80.7,527.3-22.8s0,641.1,0,641.1L747.2,622.9
	L693.4,107.4z"/>
<path class="st0" d="M4046.2,340.7c0,0-178.1-177.5-479.1-148.6s-563.7,5.9-757.1-51S2377.1-0.7,2290.9,45.7s-88.5,635-88.5,635
	l1719.3,163.2L4046.2,340.7z M1342.8,92c0,0-207.8-141.6-498.3-57.6S291.6,144.2,91.1,124s-451.7-59.5-527.8,2.1
	c-76.1,61.5,30.2,640.4,30.2,640.4l1719.9-157L1342.8,92z"/>
</svg>
