<svg xmlns="http://www.w3.org/2000/svg" viewBox="0 0 3000 203" fill="#4a64b8"><path d="M431.6 4.9c.1-2.7 2.4-4.8 5.1-4.6 49.7 3.3 466.3 33.4 815 147.7 371.5 121.7 550.7 171.1 760.5 115.1 94.8-25.3 332.2-190.8 485.1-108.6v1102.1H395.2L431.6 4.9z"/><path d="M441.8 6.4c-.2-3.5-3.3-6.2-6.8-5.8C381.4 5.3.9 42-343.6 154.9-715.1 276.6-894.3 326-1104 270c-94.8-25.3-332.2-190.8-485.1-108.6v1102.1H513L441.8 6.4zm3914.3-1.5c-.1-2.7-2.4-4.8-5.1-4.6-49.7 3.3-466.3 33.4-815 147.7-371.5 121.7-550.7 171.1-760.5 115.1-94.8-25.3-332.2-190.8-485.1-108.6v1102.1h2102.2L4356.1 4.9z"/></svg>