<?xml version="1.0" encoding="utf-8"?>
<!-- Generator: Adobe Illustrator 24.0.2, SVG Export Plug-In . SVG Version: 6.00 Build 0)  -->
<svg version="1.1" id="Camada_1" xmlns="http://www.w3.org/2000/svg" xmlns:xlink="http://www.w3.org/1999/xlink" x="0px" y="0px"
	 viewBox="0 0 3000 500" style="enable-background:new 0 0 3000 500;" xml:space="preserve">
<style type="text/css">
	.st0{fill:#2A3B87;}
</style>
<path class="st0" d="M376.4,71.8c0,0,246.8,35.8,434.8,0c187.9-35.8,485.1-96.1,852.2-51.1s659.9,78.6,979,25.6V819H334.8
	L376.4,71.8L376.4,71.8z"/>
<path class="st0" d="M832.3,71.8c0,0-246.8,35.8-434.8,0C209.6,35.9-87.6-24.3-454.8,20.6s-659.9,78.6-979,25.6v772.7H873.9
	L832.3,71.8z M2238.1,78.3c0,0,249.1,13.1,433-39.7c183.9-52.9,474.3-140,844-128.8s664.4,18,977.2-64l70.6,769.5L2265,826.1
	L2238.1,78.3L2238.1,78.3z"/>
</svg>
