<?xml version="1.0" encoding="UTF-8"?>
<svg data-name="Camada 1" viewBox="0 0 3e3 504" xmlns="http://www.w3.org/2000/svg">
<path d="m698.3 134.5s320.5-171.4 677-119.5c141.63 20.62 210 44.45 378.82 64.69 257.17 30.83 471.46 1.76 611.76-27.4q-4 228.26-8.08 456.51h-1683.4q11.96-187.15 23.9-374.3z" fill="#182543"/>
<path d="m1642.6 176s-320.5-171.4-677-119.5-341.5 113.3-982.5 26.2v467.6h1683.4zm1553.4-221.62c-44.73-0.3-238.76-1.33-363.17 5.46-19.27 1-44.89 2.73-77.53 7.23a871.5 871.5 0 0 0-143.21 31.93c-131.26 40.69-447.49 84.14-462.44 86.17-135.72 18.45-343.41 33-619.17 1.52l76.89 461.31 1737.2-51z" fill="#182543"/>
</svg>
