<svg xmlns="http://www.w3.org/2000/svg" viewBox="0 0 224.94 162.15"><defs><style>.cls-1{fill:#4055a2;}.cls-2,.cls-3,.cls-5,.cls-6{fill:none;stroke:#f7f9fd;}.cls-2{stroke-linecap:round;}.cls-2,.cls-6{stroke-linejoin:round;}.cls-2,.cls-3{stroke-width:2.29px;}.cls-3,.cls-5{stroke-miterlimit:10;}.cls-4{fill:#f7f9fd;}.cls-5{stroke-width:2.99px;}.cls-6{stroke-width:3.82px;}</style></defs><title>Ativo 7</title><g id="Camada_2" data-name="Camada 2"><g id="Camada_1-2" data-name="Camada 1"><polygon class="cls-1" points="201.58 2.55 200.77 2.21 9.22 2.21 20.89 15.1 21.17 28.87 3.84 28.87 3.84 160.91 16.47 160.91 55.17 160.91 159.61 160.91 198.31 160.91 212.6 160.91 213.74 159.77 213.74 40.21 222.52 40.21 223.66 39.07 223.66 27.85 224.13 27.85 224.94 25.9 201.58 2.55"/><line class="cls-2" x1="20.42" y1="26.34" x2="220.49" y2="26.34"/><line class="cls-2" x1="1.91" y1="39.13" x2="212.86" y2="39.13"/><rect class="cls-3" x="17.9" y="53" width="33.91" height="22.1" transform="translate(-29.19 98.9) rotate(-90)"/><rect class="cls-4" x="21.23" y="56.35" width="27.25" height="15.41" transform="translate(-29.19 98.9) rotate(-90)"/><rect class="cls-3" x="160.04" y="53" width="33.91" height="22.1" transform="translate(112.95 241.05) rotate(-90)"/><rect class="cls-4" x="163.37" y="56.35" width="27.25" height="15.41" transform="translate(112.95 241.05) rotate(-90)"/><rect class="cls-3" x="101" y="45.84" width="19.6" height="22.1" transform="translate(53.91 167.69) rotate(-90)"/><rect class="cls-4" x="104.33" y="49.19" width="12.94" height="15.41" transform="translate(53.91 167.69) rotate(-90)"/><rect class="cls-3" x="68.55" y="103.36" width="23.42" height="22.1" transform="translate(-34.15 194.67) rotate(-90)"/><rect class="cls-4" x="71.88" y="106.7" width="16.76" height="15.41" transform="translate(-34.15 194.67) rotate(-90)"/><rect class="cls-3" x="10.93" y="116.58" width="47.08" height="22.1" transform="translate(-93.16 162.11) rotate(-90)"/><rect class="cls-4" x="14.26" y="119.93" width="40.42" height="15.41" transform="translate(-93.16 162.11) rotate(-90)"/><polyline class="cls-5" points="53.31 160.24 53.31 151.17 15.25 151.17 15.25 160.24"/><rect class="cls-3" x="153.65" y="116.58" width="47.08" height="22.1" transform="translate(49.55 304.82) rotate(-90)"/><rect class="cls-4" x="156.98" y="119.93" width="40.42" height="15.41" transform="translate(49.55 304.82) rotate(-90)"/><polyline class="cls-5" points="196.03 160.24 196.03 151.17 157.97 151.17 157.97 160.24"/><path class="cls-6" d="M20.42,16.33l0,13.26H1.91V160.24H210.56l1.14-1.14V39.82h8.75l1.14-1.14V27.49h.47l.81-1.95-23.3-23.3-.81-.33H7.25Z"/></g></g></svg>