<svg xmlns="http://www.w3.org/2000/svg" viewBox="0 0 244.37 22.05"><defs><style>.cls-1{fill:#28347b;}</style></defs><title>Ativo 3</title><g id="Camada_2" data-name="Camada 2"><g id="Camada_1-2" data-name="Camada 1"><path class="cls-1" d="M-5498.76,7757.92h9.25l-4.63-4.62Zm226.92-4h0l-10.58-10.59L-5293,7753.9l-10.59-10.59-10.58,10.59h0l-10.59-10.59-10.58,10.59-10.59-10.59-10.58,10.59h0l-10.59-10.59-10.58,10.59-10.59-10.59-10.59,10.59h0l-10.58-10.59L-5420,7753.9l-10.58-10.59-10.59,10.59h0l-10.58-10.59-10.59,10.59-10.58-10.59-10.59,10.59h0l-10.58-10.59-5.75,5.75v4l5.75-5.74,10.58,10.58v0l10.59-10.58,10.58,10.56,10.59-10.56,10.58,10.58v0l10.59-10.58,10.58,10.58,10.59-10.58,10.58,10.58v0l10.59-10.58,10.58,10.54,10.59-10.54,10.58,10.58v0l10.58-10.58,10.59,10.58,10.58-10.58,10.58,10.58v0l10.58-10.58,10.58,10.56,10.59-10.56,10.59,10.58v0l10.59-10.58,5.74,5.74v-4l-5.74-5.75Zm-205.75,4h9.25l-4.62-4.62Zm-22.29-22v7.22l5.75-5.74,10.58,10.57h0l10.59-10.57,10.58,10.56,10.59-10.56,10.58,10.57h0l10.59-10.57,10.58,10.57,10.59-10.57,10.58,10.57h0l10.59-10.57,10.58,10.54,10.59-10.54,10.58,10.57h0l10.58-10.57,10.59,10.57,10.58-10.57,10.58,10.57h0l10.58-10.57,10.58,10.56,10.59-10.56,10.59,10.57h0l10.59-10.57,5.74,5.74v-7.22Zm16.33,8h0Zm42.34,0h0Zm42.34,0h0Zm42.35,0h0Zm42.34,0h0Zm42.34,0h0Zm-36.38,14h9.25l-4.63-4.62Zm-21.17,0h9.25l-4.63-4.62Zm63.51,0h9.25l-4.62-4.62Zm-21.17,0h9.25l-4.63-4.62Zm-63.51,0h9.25l-4.63-4.62Zm-105.86,0h9.25l-4.62-4.62Zm42.34,0h9.25l-4.62-4.62Zm-21.16,0h9.24l-4.62-4.62Zm63.51,0h9.25l-4.63-4.62Zm-21.17,0h9.24l-4.62-4.62Z" transform="translate(5499.88 -7735.88)"/></g></g></svg>