<svg xmlns="http://www.w3.org/2000/svg" viewBox="0 0 445.86 293.51"><defs><style>.cls-1{fill:#222f5f;}.cls-2,.cls-3,.cls-4,.cls-6{fill:none;stroke:#f7f9fd;}.cls-2,.cls-4{stroke-miterlimit:10;}.cls-2,.cls-6{stroke-width:3.82px;}.cls-3{stroke-linecap:round;}.cls-3,.cls-6{stroke-linejoin:round;}.cls-3,.cls-4{stroke-width:2.29px;}.cls-5{fill:#f7f9fd;}</style></defs><title>Ativo 6</title><g id="Camada_2" data-name="Camada 2"><g id="Camada_1-2" data-name="Camada 1"><polygon class="cls-1" points="443.95 140.4 443.93 128.31 410.33 92.84 409.52 92.5 237.58 92.76 237.58 48.41 242.36 48.41 243.5 47.27 243.5 34.91 243.03 34.44 243.17 34.1 211.01 1.95 209.36 1.99 180.37 33.77 179.69 33.77 178.55 34.91 178.55 47.27 179.69 48.41 184.47 48.41 184.47 92.76 132.13 92.76 132.13 91.95 36.5 92.5 1.91 127.14 1.91 140.4 18.51 138.83 18.51 291.46 19.3 292.26 96.59 292.26 97.73 291.11 97.73 280.45 146.47 280.45 146.47 291.18 147.61 292.32 229.42 292.32 230.57 291.18 230.57 280.45 274.63 280.45 274.63 291.11 275.77 292.26 350.01 292.26 425.44 291.11 425.44 140.68 443.95 140.4"/><line class="cls-2" x1="234.76" y1="92.5" x2="182.92" y2="92.5"/><polyline class="cls-3" points="36.5 92.5 1.91 127.14 443.93 127.14 426.76 109.82"/><line class="cls-2" x1="234.76" y1="48.24" x2="182.92" y2="48.24"/><line class="cls-4" x1="242.39" y1="34.89" x2="177.2" y2="34.89"/><rect class="cls-4" x="201.11" y="59.98" width="15.6" height="20.2"/><rect class="cls-5" x="204.44" y="63.33" width="8.94" height="13.5"/><polyline class="cls-3" points="443.95 127.14 443.95 140.4 1.91 140.4 1.91 127.14"/><line class="cls-3" x1="424.66" y1="140.4" x2="424.66" y2="270.89"/><line class="cls-3" x1="347.48" y1="140.4" x2="347.48" y2="291.69"/><line class="cls-3" x1="273.12" y1="140.4" x2="273.12" y2="291.69"/><line class="cls-3" x1="94.54" y1="140.4" x2="94.54" y2="291.69"/><line class="cls-3" x1="17.62" y1="140.4" x2="17.62" y2="291.69"/><line class="cls-3" x1="234.76" y1="279.04" x2="139.04" y2="279.04"/><polyline class="cls-3" points="220.48 279.04 220.48 266.76 152.41 266.76 152.41 279.04"/><polyline class="cls-3" points="209.46 267.02 209.46 254.74 163.47 254.74 163.47 267.02"/><line class="cls-3" x1="273.01" y1="254.74" x2="94.82" y2="254.74"/><polyline class="cls-4" points="94.54 226.95 149.62 226.95 149.62 254.74"/><rect class="cls-4" x="109.3" y="195.91" width="31.63" height="58.84"/><line class="cls-4" x1="145.42" y1="226.95" x2="145.42" y2="254.74"/><line class="cls-4" x1="135.69" y1="226.95" x2="135.69" y2="254.74"/><line class="cls-4" x1="130.35" y1="226.95" x2="130.35" y2="254.74"/><line class="cls-4" x1="125.01" y1="226.95" x2="125.01" y2="254.74"/><line class="cls-4" x1="119.67" y1="226.95" x2="119.67" y2="254.74"/><line class="cls-4" x1="114.32" y1="226.95" x2="114.32" y2="254.74"/><line class="cls-4" x1="104.21" y1="226.95" x2="104.21" y2="254.74"/><polyline class="cls-4" points="272.79 226.95 217.71 226.95 217.71 254.74"/><rect class="cls-4" x="226.39" y="195.91" width="31.63" height="58.84" transform="translate(484.42 450.65) rotate(-180)"/><line class="cls-4" x1="221.91" y1="226.95" x2="221.91" y2="254.74"/><line class="cls-4" x1="231.64" y1="226.95" x2="231.64" y2="254.74"/><line class="cls-4" x1="236.98" y1="226.95" x2="236.98" y2="254.74"/><line class="cls-4" x1="242.32" y1="226.95" x2="242.32" y2="254.74"/><line class="cls-4" x1="247.66" y1="226.95" x2="247.66" y2="254.74"/><line class="cls-4" x1="253" y1="226.95" x2="253" y2="254.74"/><line class="cls-4" x1="263.12" y1="226.95" x2="263.12" y2="254.74"/><line class="cls-4" x1="268.07" y1="226.95" x2="268.07" y2="254.74"/><line class="cls-4" x1="99.63" y1="226.95" x2="99.63" y2="254.74"/><rect class="cls-5" x="112.59" y="198.97" width="24.89" height="27.98"/><rect class="cls-5" x="229.7" y="198.97" width="24.89" height="27.98"/><rect class="cls-4" x="237.23" y="145.6" width="11.78" height="15.62" transform="translate(89.71 396.52) rotate(-90)"/><rect class="cls-5" x="240.56" y="148.95" width="5.12" height="8.92" transform="translate(89.71 396.52) rotate(-90)"/><rect class="cls-4" x="313.66" y="145.6" width="11.78" height="15.62" transform="translate(166.14 472.95) rotate(-90)"/><rect class="cls-5" x="316.99" y="148.95" width="5.12" height="8.92" transform="translate(166.14 472.95) rotate(-90)"/><rect class="cls-4" x="304.98" y="197.03" width="29.14" height="15.62" transform="translate(114.71 524.38) rotate(-90)"/><rect class="cls-5" x="308.31" y="200.37" width="22.48" height="8.92" transform="translate(114.71 524.38) rotate(-90)"/><rect class="cls-4" x="369.49" y="211.88" width="33.91" height="22.1" transform="translate(163.51 609.38) rotate(-90)"/><rect class="cls-5" x="372.82" y="215.23" width="27.25" height="15.41" transform="translate(163.51 609.38) rotate(-90)"/><rect class="cls-4" x="48.54" y="145.6" width="11.78" height="15.62" transform="translate(-98.98 207.83) rotate(-90)"/><rect class="cls-5" x="51.87" y="148.95" width="5.12" height="8.92" transform="translate(-98.98 207.83) rotate(-90)"/><rect class="cls-4" x="39.86" y="197.03" width="29.14" height="15.62" transform="translate(-150.41 259.26) rotate(-90)"/><rect class="cls-5" x="43.19" y="200.37" width="22.48" height="8.92" transform="translate(-150.41 259.26) rotate(-90)"/><path class="cls-6" d="M1.91,127.14V140.4H16.49v150l1.14,1.14h77.1l1.14-1.14V279.75H144.5v10.71l1.14,1.14h81.62l1.14-1.14V279.75h44v10.64l1.14,1.14H424.28l1.14-1.14V271.05l-.76-130.65H444V127.14l-33.07-34.3-.81-.34H235.39V48.26h4.77l1.14-1.14V34.79l-.47-.47L241,34,208.89,1.91l-1.65,0-28.93,31.7h-.67l-1.14,1.14V47.12l1.14,1.14h4.77V92.5H36.5Z"/><rect class="cls-4" x="119.24" y="145.6" width="11.78" height="15.62" transform="translate(-28.28 278.54) rotate(-90)"/><rect class="cls-5" x="122.57" y="148.95" width="5.12" height="8.92" transform="translate(-28.28 278.54) rotate(-90)"/><rect class="cls-4" x="170.53" y="183.89" width="28.38" height="54.35" transform="translate(-26.34 395.78) rotate(-90)"/><rect class="cls-5" x="173.86" y="187.24" width="21.72" height="47.65" transform="translate(-26.34 395.78) rotate(-90)"/></g></g></svg>